<?xml version="1.0" encoding="utf-8"?>
<!-- Generator: Adobe Illustrator 22.0.1, SVG Export Plug-In . SVG Version: 6.00 Build 0)  -->
<svg version="1.1" id="图层_1" xmlns="http://www.w3.org/2000/svg" xmlns:xlink="http://www.w3.org/1999/xlink" x="0px" y="0px"
	 viewBox="0 0 2800 938" style="enable-background:new 0 0 2800 938;" xml:space="preserve">
<style type="text/css">
	.st0{fill:#2E4EE2;}
	.st1{clip-path:url(#SVGID_2_);}
	.st2{clip-path:url(#SVGID_5_);}
	.st3{fill:url(#bg_1_);}
	.st4{clip-path:url(#SVGID_8_);}
	.st5{fill:url(#path-3_1_);}
	.st6{fill:url(#path-9_1_);}
	.st7{fill:none;stroke:url(#path-3-2_1_);}
	.st8{fill:url(#path-13_1_);}
	.st9{fill:none;stroke:url(#Rectangle-18_1_);}
	.st10{fill:url(#path-6_1_);}
	.st11{fill:none;stroke:url(#SVGID_9_);}
	.st12{fill:url(#Rectangle-19_1_);}
	.st13{fill:url(#Rectangle-19-2_1_);}
	.st14{fill:url(#Rectangle-19-3_1_);}
	.st15{fill:url(#Rectangle-19-4_1_);}
	.st16{fill:url(#Rectangle-19-5_1_);}
	.st17{fill:none;stroke:url(#path-9-2_1_);}
	.st18{fill:none;stroke:url(#path-13-2_1_);}
	.st19{fill:none;stroke:url(#path-6-2_1_);}
	.st20{fill:#0056FF;}
	.st21{fill:none;stroke:#FFFFFF;}
	.st22{fill:url(#Rectangle-19-6_1_);}
</style>
<g>
	<g>
		<g>
			<g>
				<g>
					<path id="SVGID_4_" class="st0" d="M-0.1,886c466.7,23.4,933.3,35.1,1400,35.1s933.3-11.7,1400-35.1v52.5H-0.1V886z"/>
				</g>
				<g>
					<defs>
						<path id="SVGID_1_" d="M-0.1,886c466.7,23.4,933.3,35.1,1400,35.1s933.3-11.7,1400-35.1v52.5H-0.1V886z"/>
					</defs>
					<use xlink:href="#SVGID_1_"  style="overflow:visible;fill:#2E4EE2;"/>
					<clipPath id="SVGID_2_">
						<use xlink:href="#SVGID_1_"  style="overflow:visible;"/>
					</clipPath>
					<g class="st1">
						<g>
							<g>
								<g>
									<g>
										<rect id="SVGID_6_" x="-0.1" y="886" class="st0" width="2800" height="52.5"/>
									</g>
									<g id="top">
										<defs>
											<rect id="SVGID_3_" x="-0.1" y="886" width="2800" height="52.5"/>
										</defs>
										<use xlink:href="#SVGID_3_"  style="overflow:visible;fill:#2E4EE2;"/>
										<clipPath id="SVGID_5_">
											<use xlink:href="#SVGID_3_"  style="overflow:visible;"/>
										</clipPath>
										<g class="st2">
											<path class="st0" d="M-8.9,877.3h2817.5v70H-8.9V877.3z"/>
										</g>
									</g>
								</g>
							</g>
						</g>
					</g>
				</g>
			</g>
		</g>
	</g>
	
		<linearGradient id="bg_1_" gradientUnits="userSpaceOnUse" x1="1399.9999" y1="-337.01" x2="1399.9999" y2="592.68" gradientTransform="matrix(1 0 0 1 0 340)">
		<stop  offset="0" style="stop-color:#2776FB"/>
		<stop  offset="1" style="stop-color:#2E4BE0"/>
	</linearGradient>
	<path id="bg" class="st3" d="M-0.1-0.5h2800.2v938H-0.1V-0.5z"/>
	<g>
		<g>
			<g>
				<g>
					<defs>
						<rect id="SVGID_7_" x="-0.1" y="-0.5" width="2800" height="938"/>
					</defs>
					<clipPath id="SVGID_8_">
						<use xlink:href="#SVGID_7_"  style="overflow:visible;"/>
					</clipPath>
					<g id="art" class="st4">
						
							<linearGradient id="path-3_1_" gradientUnits="userSpaceOnUse" x1="1369.3357" y1="384.4225" x2="1458.2958" y2="549.1824" gradientTransform="matrix(1 0 0 1 0 340)">
							<stop  offset="0" style="stop-color:#73B9FF;stop-opacity:0.1"/>
							<stop  offset="1" style="stop-color:#FFFFFF;stop-opacity:0"/>
						</linearGradient>
						<path id="path-3" class="st5" d="M599.7,879c129.2-35.5,235.3-77.6,358.4-98.7c208.8-35.7,407.2,91.9,733,89.5
							c261-1.9,420-58.7,508.7-88.3c170.5-69.4,481.1-236,600.3-346v691.8H0.1v-182C104.9,945.3,346.6,948.4,599.7,879z"/>
						
							<linearGradient id="path-9_1_" gradientUnits="userSpaceOnUse" x1="1872.4956" y1="170.4189" x2="2168.7161" y2="531.079" gradientTransform="matrix(1 0 0 1 0 340)">
							<stop  offset="0" style="stop-color:#73B9FF;stop-opacity:0.1"/>
							<stop  offset="1" style="stop-color:#FFFFFF;stop-opacity:0"/>
						</linearGradient>
						<path id="path-9" class="st6" d="M1267.9,1127.5c570.2-190.7,586.5-565,931.9-786.3c166-106.4,435.1-107.7,596.1-59.7
							l4.2,845.8L1267.9,1127.5z"/>
						
							<linearGradient id="path-3-2_1_" gradientUnits="userSpaceOnUse" x1="0.1" y1="347.6163" x2="2800.5388" y2="347.6163" gradientTransform="matrix(1 0 0 1 0 340)">
							<stop  offset="0.11" style="stop-color:#FFFFFF;stop-opacity:0"/>
							<stop  offset="0.33" style="stop-color:#FFFFFF"/>
							<stop  offset="1" style="stop-color:#FFFFFF;stop-opacity:0"/>
						</linearGradient>
						<path id="path-3-2" class="st7" d="M0.1,939.5c104.8,0,360.8,0,552.8-48c175.5-43.9,269.8-89.9,392.9-110.9
							c208.8-35.7,419.5,91.7,745.3,89.3c261-1.9,420-58.7,508.7-88.3c170.6-69.4,481.2-236,600.4-346"/>
						
							<linearGradient id="path-13_1_" gradientUnits="userSpaceOnUse" x1="1389.6539" y1="481.7326" x2="1542.144" y2="826.4926" gradientTransform="matrix(1 0 0 1 0 340)">
							<stop  offset="0" style="stop-color:#73B9FF;stop-opacity:0.1"/>
							<stop  offset="1" style="stop-color:#FFFFFF;stop-opacity:0"/>
						</linearGradient>
						<path id="path-13" class="st8" d="M599.7,1112.7c769.8,0,1090-529.8,1600-621.3c257.1-43.9,439.7,49.7,600.4,72v563.9H0.1
							V985.6C121,1038.3,319,1112.7,599.7,1112.7z"/>
						
							<linearGradient id="Rectangle-18_1_" gradientUnits="userSpaceOnUse" x1="4005.8091" y1="2388.3206" x2="4005.9592" y2="2388.3206" gradientTransform="matrix(1898.22 0 0 -899.27 -7601836.5 2148086.75)">
							<stop  offset="0" style="stop-color:#FFFFFF;stop-opacity:0"/>
							<stop  offset="0.86" style="stop-color:#FFFFFF"/>
							<stop  offset="1" style="stop-color:#FFFFFF;stop-opacity:0"/>
						</linearGradient>
						<path id="Rectangle-18" class="st9" d="M2199.8,341.7h-0.1H2199.8L2199.8,341.7z"/>
						
							<linearGradient id="path-6_1_" gradientUnits="userSpaceOnUse" x1="1353.593" y1="436.3275" x2="1431.603" y2="646.3475" gradientTransform="matrix(1 0 0 1 0 340)">
							<stop  offset="0" style="stop-color:#73B9FF;stop-opacity:0.1"/>
							<stop  offset="1" style="stop-color:#FFFFFF;stop-opacity:0"/>
						</linearGradient>
						<path id="path-6" class="st10" d="M599.7,919.7c247.1,0,589.4-135,800-149.8c283.9-20,513.2,139.7,1032.2,48.1
							c162.6-28.7,368.1-142.5,368.1-142.5v451.8H0.1V967.5C0.1,967.5,310.9,919.7,599.7,919.7z"/>
						
							<linearGradient id="SVGID_9_" gradientUnits="userSpaceOnUse" x1="4004.9783" y1="2388.8081" x2="4005.6582" y2="2388.8281" gradientTransform="matrix(1600.09 0 0 -622.2 -6407229.5 1487140.25)">
							<stop  offset="0" style="stop-color:#FFFFFF;stop-opacity:0"/>
							<stop  offset="0.92" style="stop-color:#FFFFFF"/>
							<stop  offset="1" style="stop-color:#FFFFFF;stop-opacity:0"/>
						</linearGradient>
						<path class="st11" d="M2194.7,492.9l4.9-1.9l0.3,1L2194.7,492.9z M602.4,1112.2h-2.7l0.2,1L602.4,1112.2z"/>
						
							<linearGradient id="Rectangle-19_1_" gradientUnits="userSpaceOnUse" x1="4002.627" y1="2387.7532" x2="4003.0571" y2="2387.1033" gradientTransform="matrix(825.14 0 0 -1211 -3302207 2891560)">
							<stop  offset="0" style="stop-color:#73B9FF;stop-opacity:8.000000e-02"/>
							<stop  offset="1" style="stop-color:#FFFFFF;stop-opacity:0"/>
						</linearGradient>
						<path id="Rectangle-19" class="st12" d="M384.7-0.5h293l495.7,1128h-293L384.7-0.5z"/>
						
							<linearGradient id="Rectangle-19-2_1_" gradientUnits="userSpaceOnUse" x1="4002.104" y1="2387.7412" x2="4002.384" y2="2387.3313" gradientTransform="matrix(825.14 0 0 -1211 -3302207 2891560)">
							<stop  offset="0" style="stop-color:#73B9FF;stop-opacity:8.000000e-02"/>
							<stop  offset="1" style="stop-color:#FFFFFF;stop-opacity:0"/>
						</linearGradient>
						<path id="Rectangle-19-2" class="st13" d="M18.7-0.5h146.5l333.3,738.8H352L18.7-0.5z"/>
						
							<linearGradient id="Rectangle-19-3_1_" gradientUnits="userSpaceOnUse" x1="4004.9629" y1="2387.7905" x2="4005.1431" y2="2387.5205" gradientTransform="matrix(825.14 0 0 -1211 -3302207 2891560)">
							<stop  offset="0" style="stop-color:#73B9FF;stop-opacity:8.000000e-02"/>
							<stop  offset="1" style="stop-color:#FFFFFF;stop-opacity:0"/>
						</linearGradient>
						<path id="Rectangle-19-3" class="st14" d="M2343.3-0.5h260.3l166.7,369.4H2510L2343.3-0.5z"/>
						
							<linearGradient id="Rectangle-19-4_1_" gradientUnits="userSpaceOnUse" x1="4002.627" y1="2387.7532" x2="4003.0571" y2="2387.1033" gradientTransform="matrix(825.14 0 0 -1211 -3301273 2891560)">
							<stop  offset="0" style="stop-color:#73B9FF;stop-opacity:8.000000e-02"/>
							<stop  offset="1" style="stop-color:#FFFFFF;stop-opacity:0"/>
						</linearGradient>
						<path id="Rectangle-19-4" class="st15" d="M1318.7-0.5h293l495.7,1128l-293.1-0.3L1318.7-0.5z"/>
						
							<linearGradient id="Rectangle-19-5_1_" gradientUnits="userSpaceOnUse" x1="4003.179" y1="2387.7544" x2="4003.6089" y2="2387.1045" gradientTransform="matrix(938.49 0 0 -1211 -3756164.75 2891560)">
							<stop  offset="0" style="stop-color:#73B9FF;stop-opacity:8.000000e-02"/>
							<stop  offset="1" style="stop-color:#FFFFFF;stop-opacity:0"/>
						</linearGradient>
						<path id="Rectangle-19-5" class="st16" d="M621.7-0.5h406.4l495.7,1128h-406.3L621.7-0.5z"/>
						
							<linearGradient id="path-9-2_1_" gradientUnits="userSpaceOnUse" x1="1267.7415" y1="349.304" x2="2796.0427" y2="349.304" gradientTransform="matrix(1 0 0 1 0 340)">
							<stop  offset="0.17" style="stop-color:#FFFFFF;stop-opacity:0"/>
							<stop  offset="0.29" style="stop-color:#FFFFFF;stop-opacity:8.000000e-02"/>
							<stop  offset="0.54" style="stop-color:#FFFFFF;stop-opacity:0.29"/>
							<stop  offset="0.77" style="stop-color:#FFFFFF;stop-opacity:0.5"/>
							<stop  offset="1" style="stop-color:#FFFFFF;stop-opacity:0"/>
						</linearGradient>
						<path id="path-9-2" class="st17" d="M1267.9,1127.5c570.2-190.7,586.5-565,931.9-786.3c166-106.4,435.1-107.7,596.1-59.7"/>
						
							<linearGradient id="path-13-2_1_" gradientUnits="userSpaceOnUse" x1="1209.0027" y1="393.3952" x2="2800.1687" y2="393.3952" gradientTransform="matrix(1 0 0 1 0 340)">
							<stop  offset="0" style="stop-color:#FFFFFF;stop-opacity:0"/>
							<stop  offset="0.12" style="stop-color:#FFFFFF;stop-opacity:8.000000e-02"/>
							<stop  offset="0.36" style="stop-color:#FFFFFF;stop-opacity:0.29"/>
							<stop  offset="0.7" style="stop-color:#FFFFFF;stop-opacity:0.62"/>
							<stop  offset="0.77" style="stop-color:#FFFFFF;stop-opacity:0.7"/>
							<stop  offset="1" style="stop-color:#FFFFFF;stop-opacity:0"/>
						</linearGradient>
						<path id="path-13-2" class="st18" d="M1209.2,987c379-162.7,639.9-432.7,990.5-495.6c257.1-43.9,439.7,49.7,600.4,72"/>
						
							<linearGradient id="path-6-2_1_" gradientUnits="userSpaceOnUse" x1="4.920277e-03" y1="457.6313" x2="2800.2422" y2="457.6313" gradientTransform="matrix(1 0 0 1 0 340)">
							<stop  offset="0.15" style="stop-color:#FFFFFF;stop-opacity:0"/>
							<stop  offset="0.45" style="stop-color:#FFFFFF"/>
							<stop  offset="1" style="stop-color:#FFFFFF;stop-opacity:0"/>
						</linearGradient>
						<path id="path-6-2" class="st19" d="M0.1,859.5c0,0,310.8,60.2,599.6,60.2c247.1,0,589.4-135,800-149.8
							c283.9-20,513.2,139.7,1032.2,48.1c162.6-28.7,368.1-142.5,368.1-142.5"/>
						<g id="path-21">
							
								<image style="overflow:visible;opacity:0.2;enable-background:new    ;" width="37" height="37" xlink:href="96E93216.png"  transform="matrix(1 0 0 1 980.9 760.5)">
							</image>
							<circle class="st20" cx="999.2" cy="775" r="8.5"/>
							<circle class="st21" cx="999.2" cy="775" r="8.5"/>
						</g>
						<g id="path-29">
							
								<image style="overflow:visible;opacity:0.2;enable-background:new    ;" width="26" height="26" xlink:href="96E93211.png"  transform="matrix(1 0 0 1 716.9 830.5)">
							</image>
							<circle class="st20" cx="729.7" cy="839.5" r="3"/>
							<circle class="st21" cx="729.7" cy="839.5" r="3"/>
						</g>
						
							<linearGradient id="Rectangle-19-6_1_" gradientUnits="userSpaceOnUse" x1="4001.2014" y1="2387.7561" x2="4001.6313" y2="2387.1062" gradientTransform="matrix(628.16 0 0 -1211 -2511722.75 2891560)">
							<stop  offset="0" style="stop-color:#73B9FF;stop-opacity:8.000000e-02"/>
							<stop  offset="1" style="stop-color:#FFFFFF;stop-opacity:0"/>
						</linearGradient>
						<path id="Rectangle-19-6" class="st22" d="M1573.7-0.5h96l495.6,1127.8l-96.6-1.4L1573.7-0.5z"/>
						<g id="path-27">
							
								<image style="overflow:visible;opacity:0.2;enable-background:new    ;" width="29" height="29" xlink:href="96E93210.png"  transform="matrix(1 0 0 1 1380.9 759.5)">
							</image>
							<circle class="st20" cx="1395.2" cy="770" r="4.5"/>
							<circle class="st21" cx="1395.2" cy="770" r="4.5"/>
						</g>
						<g id="path-25">
							
								<image style="overflow:visible;opacity:0.2;enable-background:new    ;" width="31" height="34" xlink:href="96E9321F.png"  transform="matrix(1 0 0 1 1872.9 816.5)">
							</image>
							<path class="st20" d="M1888.4,836.5c3.1,0,5.7-2.5,5.7-5.7l0,0c0-2.1-1.9-4.9-5.7-8.4c-3.8,3.5-5.7,6.3-5.7,8.4
								C1882.7,834,1885.3,836.5,1888.4,836.5L1888.4,836.5z"/>
							<path class="st21" d="M1888.4,836.5c3.1,0,5.7-2.5,5.7-5.7l0,0c0-2.1-1.9-4.9-5.7-8.4c-3.8,3.5-5.7,6.3-5.7,8.4
								C1882.7,834,1885.3,836.5,1888.4,836.5L1888.4,836.5z"/>
						</g>
						<g id="path-23">
							
								<image style="overflow:visible;opacity:0.2;enable-background:new    ;" width="34" height="38" xlink:href="96E9321E.png"  transform="matrix(1 0 0 1 1424.9 750.5)">
							</image>
							<path class="st20" d="M1442,774.5c4,0,7.3-3.3,7.3-7.3l0,0c0-2.7-2.4-6.3-7.3-10.8c-4.9,4.5-7.3,8.1-7.3,10.8
								C1434.7,771.2,1438,774.5,1442,774.5L1442,774.5z"/>
							<path class="st21" d="M1442,774.5c4,0,7.3-3.3,7.3-7.3l0,0c0-2.7-2.4-6.3-7.3-10.8c-4.9,4.5-7.3,8.1-7.3,10.8
								C1434.7,771.2,1438,774.5,1442,774.5L1442,774.5z"/>
						</g>
					</g>
				</g>
			</g>
		</g>
	</g>
</g>
</svg>
