<?xml version="1.0" encoding="iso-8859-1"?>
<!-- Generator: Adobe Illustrator 19.0.0, SVG Export Plug-In . SVG Version: 6.00 Build 0)  -->
<svg version="1.1" id="Capa_1" xmlns="http://www.w3.org/2000/svg" xmlns:xlink="http://www.w3.org/1999/xlink" x="0px" y="0px"
	 viewBox="0 0 512 512" style="enable-background:new 0 0 512 512;" xml:space="preserve">
<path style="fill:#FEA832;" d="M436,61h-17.401C374.2,61,331,46.8,293.8,22.2L264.401,2.399C262,0.599,258.999,0,256,0
	s-6,0.599-8.401,2.399L218.2,22.2C181,46.8,137.8,61,93.401,61H76c-8.401,0-15,6.599-15,15v186.899
	c0,115.201,71.1,208.599,190.201,248.2C252.7,511.7,254.5,512,256,512s3.3-0.3,4.799-0.901C379.9,471.499,451,378.1,451,262.899V76
	C451,67.599,444.401,61,436,61z"/>
<path style="fill:#FE9923;" d="M451,76v186.899c0,115.201-71.1,208.599-190.201,248.2C259.3,511.7,257.5,512,256,512V0
	c2.999,0,6,0.599,8.401,2.399L293.8,22.2C331,46.8,374.2,61,418.599,61H436C444.401,61,451,67.599,451,76z"/>
<path style="fill:#FEDB41;" d="M378.1,117.999c-40.8-5.7-79.2-21.099-114-43.599c-2.401-1.5-5.101-2.401-8.101-2.401
	s-5.7,0.901-8.101,2.401c-34.799,22.5-73.2,37.899-114,43.599c-7.5,1.201-12.9,7.5-12.9,15V262.9
	c0,81.899,47.1,149.801,129.3,183.999c1.8,0.601,3.6,1.201,5.7,1.201s3.9-0.601,5.7-1.201C343.9,412.7,391,344.799,391,262.899
	v-129.9C391,125.499,385.6,119.2,378.1,117.999z"/>
<path style="fill:#FFCC33;" d="M391,132.999V262.9c0,81.899-47.1,149.801-129.3,183.999c-1.8,0.601-3.6,1.201-5.7,1.201V71.999
	c2.999,0,5.7,0.901,8.101,2.401c34.799,22.5,73.2,37.899,114,43.599C385.6,119.2,391,125.499,391,132.999z"/>
<path style="fill:#0D70B2;" d="M298.9,267.999c10.8-11.1,17.1-26.1,17.1-41.999c0-33.001-27.001-60-60-60s-60,26.999-60,60
	c0,15.899,6.301,30.899,17.1,41.999L196.6,327.1c-1.201,4.499-0.3,9.3,2.399,12.9c3.001,3.9,7.202,6,12.001,6h90
	c4.799,0,9-2.1,12.001-6c2.699-3.6,3.6-8.401,2.399-12.9L298.9,267.999z"/>
<path style="fill:#095C92;" d="M315.399,327.1c1.201,4.499,0.3,9.3-2.399,12.9c-3.001,3.9-7.202,6-12.001,6h-45V166
	c32.999,0,60,26.999,60,60c0,15.899-6.301,30.899-17.1,41.999L315.399,327.1z"/>
<g>
</g>
<g>
</g>
<g>
</g>
<g>
</g>
<g>
</g>
<g>
</g>
<g>
</g>
<g>
</g>
<g>
</g>
<g>
</g>
<g>
</g>
<g>
</g>
<g>
</g>
<g>
</g>
<g>
</g>
</svg>
