<?xml version="1.0"?>
<svg xmlns="http://www.w3.org/2000/svg" xmlns:xlink="http://www.w3.org/1999/xlink" class="" id="Capa_1" style="enable-background:new 0 0 435.104 435.104;" viewBox="0 0 435.104 435.104" x="0px" y="0px" width="512px" height="512px" version="1.1" xml:space="preserve"><g><g>
	<g>
		<g>
			<circle class="active-path" cx="154.112" cy="377.684" r="52.736" data-original="#000000" data-old_color="#ffffff" fill="#ffffff"/>
			<path class="active-path" d="M 323.072 324.436 L 323.072 324.436 c -29.267 -2.88 -55.327 18.51 -58.207 47.777 c -2.88 29.267 18.51 55.327 47.777 58.207 c 3.468 0.341 6.962 0.341 10.43 0 c 29.267 -2.88 50.657 -28.94 47.777 -58.207 C 368.361 346.928 348.356 326.924 323.072 324.436 Z" data-original="#000000" data-old_color="#ffffff" fill="#ffffff"/>
			<path class="active-path" d="M 431.616 123.732 c -2.62 -3.923 -7.059 -6.239 -11.776 -6.144 h -58.368 v -1.024 C 361.476 54.637 311.278 4.432 249.351 4.428 C 187.425 4.424 137.22 54.622 137.216 116.549 c 0 0.005 0 0.01 0 0.015 v 1.024 h -43.52 L 78.848 50.004 C 77.199 43.129 71.07 38.268 64 38.228 H 0 v 30.72 h 51.712 l 47.616 218.624 c 1.257 7.188 7.552 12.397 14.848 12.288 h 267.776 c 7.07 -0.041 13.198 -4.901 14.848 -11.776 l 37.888 -151.552 C 435.799 132.019 434.654 127.248 431.616 123.732 Z M 249.344 197.972 c -44.96 0 -81.408 -36.448 -81.408 -81.408 s 36.448 -81.408 81.408 -81.408 s 81.408 36.448 81.408 81.408 C 330.473 161.408 294.188 197.692 249.344 197.972 Z" data-original="#000000" data-old_color="#ffffff" fill="#ffffff"/>
			<path class="active-path" d="M 237.056 118.1 l -28.16 -28.672 l -22.016 21.504 l 38.912 39.424 c 2.836 2.894 6.7 4.55 10.752 4.608 c 3.999 0.196 7.897 -1.289 10.752 -4.096 l 64.512 -60.928 l -20.992 -22.528 L 237.056 118.1 Z" data-original="#000000" data-old_color="#ffffff" fill="#ffffff"/>
		</g>
	</g>
</g></g> </svg>
