<?xml version="1.0" encoding="iso-8859-1"?>
<!-- Generator: Adobe Illustrator 19.0.0, SVG Export Plug-In . SVG Version: 6.00 Build 0)  -->
<svg version="1.1" id="Capa_1" xmlns="http://www.w3.org/2000/svg" xmlns:xlink="http://www.w3.org/1999/xlink" x="0px" y="0px"
	 viewBox="0 0 512 512" style="enable-background:new 0 0 512 512;" xml:space="preserve">
<circle style="fill:#9E95EB;" cx="256" cy="256" r="256"/>
<path style="fill:#5D5EBF;" d="M512,256c0-7.989-0.385-15.887-1.101-23.689L395.35,116.65c-50.695-50.695-132.888-50.695-183.583,0
	c-46.719,46.72-50.383,120.19-10.991,171.105l-99.147,99.147l123.205,123.205C235.05,511.348,245.448,512,256,512
	C397.385,512,512,397.385,512,256z"/>
<rect x="147.916" y="275.154" transform="matrix(-0.7071 -0.7071 0.7071 -0.7071 35.1303 709.5188)" style="fill:#FFFFFF;" width="33.19" height="144.659"/>
<rect x="98.037" y="345.06" transform="matrix(-0.7071 0.7071 -0.7071 -0.7071 540.7021 482.747)" style="fill:#FFF7D6;" width="144.669" height="16.594"/>
<circle style="fill:#FFB8C4;" cx="303.56" cy="208.44" r="129.81"/>
<path style="fill:#FF8B9F;" d="M395.35,300.237c-46.719,46.719-120.187,50.375-171.104,10.984
	c-4.334-3.354-8.503-7.017-12.477-10.991l183.58-183.58C446.043,167.343,446.05,249.537,395.35,300.237z"/>
<path style="fill:#FFFFFF;" d="M356.438,120.202c36.839,36.839,47.667,104.896,5.071,147.492
	c-40.797,40.797-91.216,27.543-120.796-2.037c-31.855-31.855-23.462-73.584,1.294-98.34c26.961-26.961,61.156-20.979,80.999-1.135
	c21.121,21.12,13.019,52.583-0.655,66.257c-9.332,9.332-30.276,20.533-49.58,3.321c-7.262-6.474-11.354-14.778-11.228-22.783
	c0.106-6.76,3.251-12.92,9.1-17.812c9.822-8.218,19.962-6.153,25.655-0.461c3.797,3.797,3.695,11.077-0.208,14.981l10.891,10.891
	c10.02-10.02,10.115-26.855,0.208-36.762c-10.635-10.635-29.998-14.209-46.429-0.461c-9.249,7.737-14.44,18.174-14.616,29.383
	c-0.196,12.484,5.774,25.066,16.378,34.52c24.261,21.631,53.667,13.128,70.721-3.926c10.028-10.028,16.707-25.261,17.866-40.749
	c1.351-18.045-4.762-34.839-17.212-47.289c-25.256-25.256-68.67-32.975-102.78,1.135c-15.147,15.147-24.73,35.548-26.291,55.972
	c-1.268,16.593,2.039,41.191,24.997,64.148c19.46,19.46,43.966,30.855,69.003,32.084c27.142,1.334,52.584-9.057,73.574-30.047
	c22.44-22.44,33.725-53.113,31.775-86.369c-1.823-31.094-15.253-61.312-36.846-82.904c-12.519-12.519-26.853-22.141-42.16-28.881
	c-19.565-3.286-39.737-2.073-58.854,3.633C298.869,83.369,331.649,95.413,356.438,120.202z"/>
<g>
	<path style="fill:#FFF7D6;" d="M372.401,278.587c-20.987,20.987-46.438,31.379-73.576,30.045
		c-23.821-1.176-47.159-11.546-66.134-29.324l10.897-10.897c29.886,27.607,78.415,38.793,117.923-0.714
		c35.793-35.793,33.86-89.565,10.472-127.68l11.171-11.171c12.253,18.672,19.696,40.798,21.023,63.372
		C406.124,225.478,394.845,256.143,372.401,278.587z"/>
	<path style="fill:#FFF7D6;" d="M306.982,220.581L299.2,212.8l15.022-15.023C315.506,205.84,313.09,214.473,306.982,220.581z"/>
	<path style="fill:#FFF7D6;" d="M263.71,248.29l10.948-10.948c18.758,14.907,38.67,4.125,47.693-4.897
		c10.969-10.969,18.347-33.391,9.938-52.734l11.453-11.452c5.719,10.19,8.287,21.96,7.363,34.322
		c-1.154,15.491-7.832,30.723-17.864,40.755C316.465,260.11,287.74,268.613,263.71,248.29z"/>
</g>
<g>
</g>
<g>
</g>
<g>
</g>
<g>
</g>
<g>
</g>
<g>
</g>
<g>
</g>
<g>
</g>
<g>
</g>
<g>
</g>
<g>
</g>
<g>
</g>
<g>
</g>
<g>
</g>
<g>
</g>
</svg>
