<?xml version="1.0" encoding="iso-8859-1"?>
<!-- Generator: Adobe Illustrator 19.0.0, SVG Export Plug-In . SVG Version: 6.00 Build 0)  -->
<svg version="1.1" id="Capa_1" xmlns="http://www.w3.org/2000/svg" xmlns:xlink="http://www.w3.org/1999/xlink" x="0px" y="0px"
	 viewBox="0 0 512 512" style="enable-background:new 0 0 512 512;" xml:space="preserve">
<linearGradient id="SVGID_1_" gradientUnits="userSpaceOnUse" x1="0" y1="258.0001" x2="512" y2="258.0001" gradientTransform="matrix(1 0 0 -1 0 514.0001)">
	<stop  offset="0" style="stop-color:#80D8FF"/>
	<stop  offset="1" style="stop-color:#EA80FC"/>
</linearGradient>
<path style="fill:url(#SVGID_1_);" d="M113.908,155.942c4.884,3.707,11.331,5.046,17.471,3.332l84.029-23.466h81.185l84.029,23.466
	c5.924,1.655,12.408,0.51,17.471-3.332c4.982-3.782,7.908-9.676,7.908-15.931v-120c0-6.255-2.926-12.149-7.908-15.931
	s-11.447-5.012-17.471-3.332l-84.029,23.466h-81.185L131.379,0.748c-6.021-1.682-12.488-0.449-17.471,3.332
	C108.926,7.861,106,13.756,106,20.011v120C106,146.266,108.926,152.16,113.908,155.942z M366,113.66l-46.667-13.032V59.394
	L366,46.361V113.66z M279.333,95.808h-46.666V64.213h46.666V95.808z M146,46.361l46.667,13.032v41.234L146,113.66V46.361z
	 M281,216.011c0,13.807-11.193,25-25,25s-25-11.193-25-25s11.193-25,25-25S281,202.204,281,216.011z M281,316.011
	c0,13.807-11.193,25-25,25s-25-11.193-25-25s11.193-25,25-25S281,302.204,281,316.011z M497.31,76.729
	c-8.676-2.389-17.883,1.312-22.49,9.043L256,452.943L37.181,85.772c-4.608-7.732-13.815-11.433-22.49-9.043
	C6.013,79.118,0,87.01,0,96.011v180c0,5.611,2.357,10.965,6.497,14.753l236,216c7.605,6.962,19.389,6.971,27.006,0l236-216
	c4.14-3.789,6.497-9.142,6.497-14.753v-180C512,87.01,505.987,79.118,497.31,76.729z M40,267.204v-98.566l129.231,216.846
	L40,267.204z M472,267.204l-129.231,118.28L472,168.637V267.204z"/>
<g>
</g>
<g>
</g>
<g>
</g>
<g>
</g>
<g>
</g>
<g>
</g>
<g>
</g>
<g>
</g>
<g>
</g>
<g>
</g>
<g>
</g>
<g>
</g>
<g>
</g>
<g>
</g>
<g>
</g>
</svg>
