<?xml version="1.0"?>
<svg xmlns="http://www.w3.org/2000/svg" xmlns:xlink="http://www.w3.org/1999/xlink" id="Capa_1" style="enable-background:new 0 0 512.05 512.05;" viewBox="0 0 512.05 512.05" x="0px" y="0px" width="512px" height="512px" version="1.1" xml:space="preserve"><g><g>
	<g>
		<path class="active-path" d="M 441.369 3.034 c -4.16 -3.008 -9.536 -3.872 -14.4 -2.176 l -90.432 30.144 l -74.56 -29.824 c -3.808 -1.536 -8.064 -1.536 -11.872 0 l -74.56 29.824 L 85.081 0.858 c -4.896 -1.696 -10.24 -0.832 -14.4 2.176 c -4.16 3.008 -6.656 7.84 -6.656 12.992 v 480 c 0 5.152 2.464 9.984 6.656 12.96 c 4.16 3.04 9.536 3.744 14.432 2.208 l 90.432 -30.144 l 74.592 29.824 c 3.808 1.568 8.064 1.568 11.872 0 l 74.56 -29.824 l 90.432 30.144 c 1.632 0.544 3.328 0.832 5.024 0.832 c 3.328 0 6.592 -1.024 9.344 -3.04 c 4.192 -2.976 6.656 -7.808 6.656 -12.96 v -480 C 448.025 10.874 445.561 6.042 441.369 3.034 Z M 144.025 96.026 h 128 c 8.832 0 16 7.168 16 16 c 0 8.832 -7.168 16 -16 16 h -128 c -8.832 0 -16 -7.168 -16 -16 C 128.025 103.194 135.193 96.026 144.025 96.026 Z M 240.025 352.026 h -96 c -8.832 0 -16 -7.168 -16 -16 c 0 -8.832 7.168 -16 16 -16 h 96 c 8.832 0 16 7.168 16 16 C 256.025 344.858 248.857 352.026 240.025 352.026 Z M 240.025 256.026 h -96 c -8.832 0 -16 -7.168 -16 -16 c 0 -8.832 7.168 -16 16 -16 h 96 c 8.832 0 16 7.168 16 16 C 256.025 248.858 248.857 256.026 240.025 256.026 Z M 352.025 381.562 v 18.464 c 0 8.832 -7.168 16 -16 16 c -8.832 0 -16 -7.168 -16 -16 v -18.208 c -5.152 -1.472 -9.984 -3.68 -14.336 -6.56 c -7.328 -4.896 -9.312 -14.848 -4.416 -22.208 c 4.928 -7.328 14.848 -9.28 22.208 -4.416 c 3.328 2.208 7.68 3.392 12.544 3.392 c 9.792 0 16 -5.248 16 -8 s -6.208 -8 -16 -8 c -26.464 0 -48 -17.952 -48 -40 c 0 -17.376 13.408 -32.032 32 -37.536 v -18.464 c 0 -8.832 7.168 -16 16 -16 c 8.832 0 16 7.168 16 16 v 18.208 c 5.152 1.472 10.016 3.68 14.336 6.56 c 7.328 4.896 9.312 14.848 4.416 22.176 c -4.928 7.328 -14.816 9.344 -22.208 4.416 c -3.296 -2.208 -7.648 -3.36 -12.544 -3.36 c -9.792 0 -16 5.248 -16 8 s 6.208 8 16 8 c 26.464 0 48 17.952 48 40 C 384.025 361.402 370.617 376.058 352.025 381.562 Z M 368.025 192.026 h -224 c -8.832 0 -16 -7.168 -16 -16 c 0 -8.832 7.168 -16 16 -16 h 224 c 8.832 0 16 7.168 16 16 C 384.025 184.858 376.857 192.026 368.025 192.026 Z" data-original="#000000" data-old_color="#ffffff" fill="#ffffff"/>
	</g>
</g></g> </svg>
