<?xml version="1.0" encoding="utf-8"?>
<!-- Generator: Adobe Illustrator 22.0.1, SVG Export Plug-In . SVG Version: 6.00 Build 0)  -->
<svg version="1.1" id="Layer_1" xmlns="http://www.w3.org/2000/svg" xmlns:xlink="http://www.w3.org/1999/xlink" x="0px" y="0px"
	 viewBox="0 0 1770 900" style="enable-background:new 0 0 1770 900;" xml:space="preserve">
<style type="text/css">
	.st0{fill:url(#SVGID_1_);}
	.st1{fill:url(#SVGID_2_);}
	.st2{fill:url(#SVGID_3_);}
	.st3{fill:url(#SVGID_4_);}
	.st4{clip-path:url(#SVGID_6_);}
	.st5{fill:url(#SVGID_7_);}
	.st6{fill:url(#SVGID_8_);}
	.st7{fill:url(#SVGID_9_);}
	.st8{fill:url(#SVGID_10_);}
	.st9{clip-path:url(#SVGID_12_);}
	.st10{fill:url(#SVGID_13_);}
	.st11{fill:url(#SVGID_14_);}
	.st12{fill:url(#SVGID_15_);}
	.st13{fill:url(#SVGID_16_);}
	.st14{fill:#FFFFFF;}
	.st15{fill:url(#SVGID_17_);}
	.st16{fill:url(#SVGID_18_);}
	.st17{clip-path:url(#SVGID_20_);}
	.st18{clip-path:url(#SVGID_26_);}
	.st19{clip-path:url(#SVGID_27_);}
	.st20{clip-path:url(#SVGID_28_);}
	.st21{clip-path:url(#SVGID_29_);}
	.st22{clip-path:url(#SVGID_30_);}
	.st23{fill:url(#SVGID_31_);}
	.st24{fill:url(#SVGID_32_);}
	.st25{fill:url(#SVGID_33_);}
	.st26{fill:url(#SVGID_34_);}
	.st27{fill:url(#SVGID_35_);}
	.st28{fill:url(#SVGID_36_);}
	.st29{opacity:0.31;fill:#6380FF;enable-background:new    ;}
	.st30{fill:#6380FF;}
	.st31{fill:url(#SVGID_37_);}
	.st32{fill:url(#SVGID_38_);}
	.st33{clip-path:url(#SVGID_30_);fill:url(#SVGID_39_);}
	.st34{clip-path:url(#SVGID_30_);fill:url(#SVGID_40_);}
	.st35{clip-path:url(#SVGID_30_);fill:#FFFFFF;}
	.st36{clip-path:url(#SVGID_30_);fill:url(#SVGID_41_);}
	.st37{clip-path:url(#SVGID_30_);fill:url(#SVGID_42_);}
	.st38{fill:url(#SVGID_43_);}
	.st39{fill:url(#SVGID_44_);}
	.st40{fill:url(#SVGID_45_);}
	.st41{opacity:0.31;fill:#00D7D2;enable-background:new    ;}
	.st42{fill:#00D7D2;}
	.st43{fill:url(#SVGID_46_);}
	.st44{fill:url(#SVGID_47_);}
	.st45{fill:url(#SVGID_48_);}
	.st46{fill:url(#SVGID_49_);}
	.st47{fill:url(#SVGID_50_);}
	.st48{fill:url(#SVGID_51_);}
	.st49{fill:url(#SVGID_52_);}
	.st50{fill:url(#SVGID_53_);}
	.st51{fill:url(#SVGID_54_);}
	.st52{fill:url(#SVGID_55_);}
	.st53{fill:url(#SVGID_56_);}
	.st54{fill:url(#SVGID_57_);}
	.st55{fill:url(#SVGID_58_);}
	.st56{clip-path:url(#SVGID_60_);}
	.st57{fill:url(#SVGID_61_);}
	.st58{fill:url(#SVGID_62_);}
	.st59{fill:url(#SVGID_63_);}
	.st60{clip-path:url(#SVGID_65_);}
	.st61{fill:url(#SVGID_66_);}
	.st62{fill:url(#SVGID_67_);}
	.st63{fill:url(#SVGID_68_);}
	.st64{clip-path:url(#SVGID_70_);}
	.st65{fill:url(#SVGID_71_);}
	.st66{fill:url(#SVGID_72_);}
	.st67{fill:url(#SVGID_73_);}
	.st68{fill:#006DF0;}
</style>
<linearGradient id="SVGID_1_" gradientUnits="userSpaceOnUse" x1="-1822.6191" y1="2646.1418" x2="-2102.719" y2="2646.1418" gradientTransform="matrix(-0.495 -0.495 0.9899 -0.9899 -2395.4065 2342.1194)">
	<stop  offset="0" style="stop-color:#6369FF;stop-opacity:0.1"/>
	<stop  offset="1.000000e-02" style="stop-color:#6369FF;stop-opacity:0.1"/>
	<stop  offset="1" style="stop-color:#6369FF;stop-opacity:0"/>
</linearGradient>
<path class="st0" d="M1130.3,900.4L987.9,758l271.7-271.7L1402,628.7L1130.3,900.4z"/>
<linearGradient id="SVGID_2_" gradientUnits="userSpaceOnUse" x1="422.5647" y1="2646.1418" x2="282.6247" y2="2646.1418" gradientTransform="matrix(-1.0394 -1.0394 0.9899 -0.9899 -1052.1315 3685.3909)">
	<stop  offset="0" style="stop-color:#6369FF;stop-opacity:0.1"/>
	<stop  offset="1.000000e-02" style="stop-color:#6369FF;stop-opacity:0.1"/>
	<stop  offset="1" style="stop-color:#6369FF;stop-opacity:0"/>
</linearGradient>
<path class="st1" d="M1205.4,839.6L1055.8,690l135.8-135.8l149.5,149.5L1205.4,839.6z"/>
<linearGradient id="SVGID_3_" gradientUnits="userSpaceOnUse" x1="-3545.8765" y1="3152.7346" x2="-2224.5964" y2="3152.7346" gradientTransform="matrix(0.7071 -0.7071 -0.7071 -0.7071 5110.4775 939.1214)">
	<stop  offset="0" style="stop-color:#12004B"/>
	<stop  offset="1" style="stop-color:#4745C0"/>
</linearGradient>
<path class="st2" d="M952.2,450.2c145.2-145.2,305.1-220.7,357.2-168.6s-23.4,212-168.6,357.2S835.6,859.5,783.6,807.4
	C731.5,755.3,807,595.4,952.2,450.2z"/>
<linearGradient id="SVGID_4_" gradientUnits="userSpaceOnUse" x1="-3330.7466" y1="3121.5847" x2="-1916.1665" y2="3121.5847" gradientTransform="matrix(0.7071 -0.7071 -0.7071 -0.7071 5110.48 939.1074)">
	<stop  offset="0" style="stop-color:#12004B"/>
	<stop  offset="1" style="stop-color:#4745C0"/>
</linearGradient>
<path class="st3" d="M1004.1,502.1c107.4-107.4,223.4-165.7,259-130.1s-22.7,151.5-130.1,259s-223.4,165.7-259,130.1
	C838.4,725.5,896.6,609.5,1004.1,502.1z"/>
<g>
	<defs>
		
			<ellipse id="SVGID_5_" transform="matrix(0.7071 -0.7071 0.7071 0.7071 -95.3112 939.9797)" cx="1087" cy="585" rx="212" ry="56"/>
	</defs>
	<clipPath id="SVGID_6_">
		<use xlink:href="#SVGID_5_"  style="overflow:visible;"/>
	</clipPath>
	<g class="st4">
		
			<linearGradient id="SVGID_7_" gradientUnits="userSpaceOnUse" x1="-2998.5964" y1="3095.4045" x2="-1908.5065" y2="3095.4045" gradientTransform="matrix(0.7071 -0.7071 -0.7071 -0.7071 5110.481 939.123)">
			<stop  offset="0" style="stop-color:#12004B"/>
			<stop  offset="1" style="stop-color:#4745C0"/>
		</linearGradient>
		<path class="st5" d="M1047.4,545.4c82.8-82.8,167.6-132.2,189.5-110.3s-27.5,106.7-110.3,189.5S959,756.8,937.1,735
			C915.2,713.1,964.6,628.2,1047.4,545.4z"/>
		
			<linearGradient id="SVGID_8_" gradientUnits="userSpaceOnUse" x1="-2766.7666" y1="3065.7146" x2="-1894.9265" y2="3065.7146" gradientTransform="matrix(0.7071 -0.7071 -0.7071 -0.7071 5110.4819 939.1188)">
			<stop  offset="0" style="stop-color:#12004B"/>
			<stop  offset="1" style="stop-color:#4745C0"/>
		</linearGradient>
		<path class="st6" d="M1083.5,581.5c66.1-66.1,130.6-108.7,144.2-95.2c13.5,13.5-29.1,78.1-95.2,144.2
			c-66.1,66.1-130.6,108.7-144.2,95.2C974.8,712.2,1017.4,647.6,1083.5,581.5z"/>
	</g>
</g>
<linearGradient id="SVGID_9_" gradientUnits="userSpaceOnUse" x1="672.92" y1="730.35" x2="1016.46" y2="386.81" gradientTransform="matrix(1 0 0 -1 0 900)">
	<stop  offset="0" style="stop-color:#6369FF;stop-opacity:7.000000e-02"/>
	<stop  offset="1" style="stop-color:#6369FF;stop-opacity:0"/>
</linearGradient>
<path class="st7" d="M1262.5,264.4L767.7,759.2L0-8.5L989.1-9L1262.5,264.4z"/>
<linearGradient id="SVGID_10_" gradientUnits="userSpaceOnUse" x1="692.94" y1="759.64" x2="959.91" y2="492.67" gradientTransform="matrix(1 0 0 -1 0 900)">
	<stop  offset="0" style="stop-color:#6369FF;stop-opacity:7.000000e-02"/>
	<stop  offset="1" style="stop-color:#6369FF;stop-opacity:0"/>
</linearGradient>
<path class="st8" d="M1149.4,215.8l-381,381L171.7,0.2l767.1,5L1149.4,215.8z"/>
<g>
	<defs>
		<path id="SVGID_11_" d="M884.3,711l-75.6-76.4c-1-1-2.3-1.3-3.7-1l-49.5,12.8c-1.3,0.3-2.3,1.3-2.7,2.7L742,687.4
			c-0.4,1.3,0,2.7,1,3.7l76.3,76.8l55.3-15L884.3,711z"/>
	</defs>
	<clipPath id="SVGID_12_">
		<use xlink:href="#SVGID_11_"  style="overflow:visible;"/>
	</clipPath>
	<g class="st9">
		
			<linearGradient id="SVGID_13_" gradientUnits="userSpaceOnUse" x1="-3189.936" y1="3543.4775" x2="-3159.446" y2="3429.8777" gradientTransform="matrix(0.71 -0.71 -0.71 -0.71 5559.6104 908.2599)">
			<stop  offset="0" style="stop-color:#6380FF;stop-opacity:0.5"/>
			<stop  offset="0.24" style="stop-color:#6380FF;stop-opacity:0.35"/>
			<stop  offset="0.69" style="stop-color:#6380FF;stop-opacity:0.1"/>
			<stop  offset="0.9" style="stop-color:#6380FF;stop-opacity:0"/>
		</linearGradient>
		<path class="st10" d="M884.3,711l-77.1-78l-11.6,43.6l79,76.3L884.3,711L884.3,711z"/>
		
			<linearGradient id="SVGID_14_" gradientUnits="userSpaceOnUse" x1="-3198.2222" y1="3537.6384" x2="-3226.0022" y2="3433.8186" gradientTransform="matrix(0.71 -0.71 -0.71 -0.71 5559.6104 908.2599)">
			<stop  offset="0" style="stop-color:#6380FF;stop-opacity:0.8"/>
			<stop  offset="4.000000e-02" style="stop-color:#6380FF;stop-opacity:0.76"/>
			<stop  offset="0.47" style="stop-color:#6380FF;stop-opacity:0.36"/>
			<stop  offset="0.77" style="stop-color:#6380FF;stop-opacity:0.1"/>
			<stop  offset="0.91" style="stop-color:#6380FF;stop-opacity:0"/>
		</linearGradient>
		<path class="st11" d="M792.6,676.3l-50.1,14l76.8,77.6l55.3-15l-79.2-76.3C794.2,675.4,794.3,675.9,792.6,676.3L792.6,676.3z"/>
	</g>
</g>
<linearGradient id="SVGID_15_" gradientUnits="userSpaceOnUse" x1="739.8242" y1="222.4494" x2="792.1142" y2="238.0694" gradientTransform="matrix(1 0 0 -1 0 900)">
	<stop  offset="0" style="stop-color:#3D42DF"/>
	<stop  offset="1" style="stop-color:#5B7BE9"/>
</linearGradient>
<path class="st12" d="M801,683.1L751,697c-1,0.3-2,0-2.7-0.7l-5.8-6l65.1-56.8l5,5.1c0.7,0.7,0.9,1.7,0.7,2.6l-10.6,40
	C802.6,682.1,801.9,682.8,801,683.1L801,683.1z"/>
<linearGradient id="SVGID_16_" gradientUnits="userSpaceOnUse" x1="799.592" y1="221.467" x2="809.942" y2="262.867" gradientTransform="matrix(1 0 0 -1 0 900)">
	<stop  offset="0" style="stop-color:#ACBEFF"/>
	<stop  offset="0.52" style="stop-color:#C3D7FF"/>
	<stop  offset="1" style="stop-color:#DBF1FF"/>
</linearGradient>
<path class="st13" d="M800.5,681.2l-5-4.5l12.2-43.1l5,5.1c0.7,0.7,1,1.7,0.7,2.6l-10.5,39.3c-0.2,0.8-1,1.2-1.8,1
	C800.9,681.4,800.7,681.3,800.5,681.2z"/>
<path class="st14" d="M806,633.3l-26.8,7.6c-1.5,0.4-2.5-0.2-2.1-1.5s-0.5-2-2.1-1.6l-16.5,4.7c-1.6,0.5-2.8,1.6-3.4,3.1l-0.7,2.3
	l-11,39.2c-0.5,1.7,0.5,3.4,2.2,3.9c0.6,0.2,1.2,0.2,1.7,0l48.8-13.9l11.9-42.3C808.5,633.5,807.6,632.8,806,633.3L806,633.3z"/>
<linearGradient id="SVGID_17_" gradientUnits="userSpaceOnUse" x1="778.0617" y1="220.9989" x2="774.1217" y2="251.7889" gradientTransform="matrix(1 0 0 -1 0 900)">
	<stop  offset="0" style="stop-color:#6380FF;stop-opacity:0.5"/>
	<stop  offset="0.27" style="stop-color:#6380FF;stop-opacity:0.35"/>
	<stop  offset="0.77" style="stop-color:#6380FF;stop-opacity:0.1"/>
	<stop  offset="1" style="stop-color:#6380FF;stop-opacity:0"/>
</linearGradient>
<path class="st15" d="M806,633.3l-26.8,7.6c-1.5,0.4-2.5-0.2-2.1-1.5s-0.5-2-2.1-1.6l-16.5,4.7c-1.6,0.5-2.8,1.6-3.4,3.1l-0.7,2.3
	l-11,39.2c-0.7,2.4,1.8,2.2,4.2,1.6l48.6-11.5l11.9-42.3C808.5,633.5,807.6,632.8,806,633.3L806,633.3z"/>
<linearGradient id="SVGID_18_" gradientUnits="userSpaceOnUse" x1="775.585" y1="216.2422" x2="762.005" y2="247.2922" gradientTransform="matrix(1 0 0 -1 0 900)">
	<stop  offset="0" style="stop-color:#4069FF"/>
	<stop  offset="0.43" style="stop-color:#5981FF"/>
	<stop  offset="1" style="stop-color:#7FA5FF"/>
</linearGradient>
<path class="st16" d="M791.3,644.3l-48.7,13.8c-0.9,0.3-1.5,1.1-1.5,2l0.8,28.1c0,1.8,1.5,3.2,3.4,3.2c0.3,0,0.5,0,0.8-0.1
	l50.3-14.1l-0.8-29.9c-0.1-1.8-1.6-3.2-3.4-3.1C791.8,644.2,791.5,644.3,791.3,644.3z"/>
<g>
	<defs>
		<path id="SVGID_19_" d="M1237.1,434.9c-3-3-7.3-4.7-12.6-5.1L916.6,121.9L626.1,412.4l306,306c-0.2,7.1,1.4,12.6,5.2,16.4
			c21.9,21.9,106.7-27.5,189.5-110.3S1258.9,456.7,1237.1,434.9L1237.1,434.9z"/>
	</defs>
	<clipPath id="SVGID_20_">
		<use xlink:href="#SVGID_19_"  style="overflow:visible;"/>
	</clipPath>
	<g class="st17">
		<g>
			<defs>
				<path id="SVGID_21_" d="M1011.3,521.3l-84.7-84.8c-0.4-0.4-0.9-0.5-1.4-0.4l-9,2.4c-0.5,0.1-0.9,0.5-1,1l-2.4,9
					c-0.1,0.5,0,1,0.4,1.4l84.7,84.8c0.4,0.4,0.9,0.5,1.4,0.4l9-2.4c0.5-0.1,0.9-0.5,1-1l2.4-9
					C1011.8,522.2,1011.7,521.6,1011.3,521.3L1011.3,521.3z"/>
			</defs>
			<defs>
				<path id="SVGID_22_" d="M1182.4,529.5L918.7,264.9c-1.7-1.8-4.3-2.5-6.7-1.9l-51.1,13.2c-2.9,0.8-5.1,3-5.9,5.8l-11,38.8
					c-0.7,2.4,0,5.1,1.8,6.9l264.5,265c2.1,2.1,5.2,2.9,8.1,2.2l50.1-13.5c2.9-0.8,5.1-3,5.9-5.9l10.2-37.9
					C1185.3,534.6,1184.5,531.6,1182.4,529.5z"/>
			</defs>
			<defs>
				<path id="SVGID_23_" d="M1133.1,664.1l-126.8-127.7c-1.1-1.1-2.7-1.5-4.2-1.2l-56.3,14.5c-1.5,0.4-2.7,1.5-3.1,3l-12.4,43.8
					c-0.4,1.5,0,3.1,1.1,4.2L1059.1,729l61-16.5L1133.1,664.1z"/>
			</defs>
			<defs>
				<path id="SVGID_24_" d="M913.4,260.5l-24.8-25.7c-1.8-1.7-4.3-2.4-6.7-1.8l-51.1,13.2c-2.9,0.7-5.1,3-6,5.8l-11,38.8
					c-0.7,2.4,0,5.1,1.8,6.9l25.6,26.1c2.1,2.1,5.2,2.9,8.1,2.2l50.1-13.5c2.9-0.8,5.1-3,5.9-5.9l10.2-37.9
					C916.4,265.7,915.5,262.6,913.4,260.5L913.4,260.5z"/>
			</defs>
			<defs>
				<path id="SVGID_25_" d="M1165.9,593.3l-73.5-73.7c-0.4-0.4-0.9-0.5-1.4-0.4l-15.3,4.1c-0.5,0.1-0.9,0.5-1,1l-4.1,15.3
					c-0.2,0.5,0,1,0.3,1.4l73.5,73.7c0.4,0.4,0.9,0.5,1.4,0.4l15.3-4.1c0.5-0.1,0.9-0.5,1-1l4.1-15.3
					C1166.4,594.2,1166.3,593.7,1165.9,593.3z"/>
			</defs>
			<clipPath id="SVGID_26_">
				<use xlink:href="#SVGID_21_"  style="overflow:visible;"/>
			</clipPath>
			<clipPath id="SVGID_27_" class="st18">
				<use xlink:href="#SVGID_22_"  style="overflow:visible;"/>
			</clipPath>
			<clipPath id="SVGID_28_" class="st19">
				<use xlink:href="#SVGID_23_"  style="overflow:visible;"/>
			</clipPath>
			<clipPath id="SVGID_29_" class="st20">
				<use xlink:href="#SVGID_24_"  style="overflow:visible;"/>
			</clipPath>
			<clipPath id="SVGID_30_" class="st21">
				<use xlink:href="#SVGID_25_"  style="overflow:visible;"/>
			</clipPath>
			<g class="st22">
				
					<linearGradient id="SVGID_31_" gradientUnits="userSpaceOnUse" x1="-2939.9509" y1="3610.5625" x2="-2939.9509" y2="3478.7825" gradientTransform="matrix(0.71 -0.71 -0.71 -0.71 5559.6104 908.2599)">
					<stop  offset="0" style="stop-color:#6380FF;stop-opacity:0.5"/>
					<stop  offset="0.24" style="stop-color:#6380FF;stop-opacity:0.35"/>
					<stop  offset="0.69" style="stop-color:#6380FF;stop-opacity:0.1"/>
					<stop  offset="0.9" style="stop-color:#6380FF;stop-opacity:0"/>
				</linearGradient>
				<path class="st23" d="M1011.9,521.9l-85.9-86l-10.6,2.8l-2.9,10.6l85.9,86l10.6-2.8L1011.9,521.9z"/>
				
					<linearGradient id="SVGID_32_" gradientUnits="userSpaceOnUse" x1="-2944.5918" y1="3602.7524" x2="-2944.5918" y2="3489.2024" gradientTransform="matrix(0.71 -0.71 -0.71 -0.71 5559.6104 908.2599)">
					<stop  offset="0" style="stop-color:#6380FF;stop-opacity:0.8"/>
					<stop  offset="4.000000e-02" style="stop-color:#6380FF;stop-opacity:0.76"/>
					<stop  offset="0.47" style="stop-color:#6380FF;stop-opacity:0.36"/>
					<stop  offset="0.77" style="stop-color:#6380FF;stop-opacity:0.1"/>
					<stop  offset="0.91" style="stop-color:#6380FF;stop-opacity:0"/>
				</linearGradient>
				<path class="st24" d="M923,446l-10.5,3.3l85.9,86l10.6-2.8L923,446L923,446z"/>
				
					<linearGradient id="SVGID_33_" gradientUnits="userSpaceOnUse" x1="916.1646" y1="447.1853" x2="929.7047" y2="460.5353" gradientTransform="matrix(1 0 0 -1 0 900)">
					<stop  offset="0" style="stop-color:#ACBEFF"/>
					<stop  offset="0.52" style="stop-color:#C3D7FF"/>
					<stop  offset="1" style="stop-color:#DBF1FF"/>
				</linearGradient>
				<path class="st25" d="M926.4,449.9l-9.8,3c-0.2,0.1-0.5,0-0.6-0.1l-3.4-3.4l13.5-13.5l3.4,3.4c0.2,0.2,0.2,0.4,0.2,0.6l-2.7,9.6
					C926.8,449.7,926.6,449.8,926.4,449.9L926.4,449.9z"/>
				<path class="st14" d="M926,435.8l-10.6,2.8l-2.8,10.6l10-3.1c0.3-0.1,0.6-0.4,0.7-0.7L926,435.8z"/>
			</g>
			<g class="st22">
				
					<linearGradient id="SVGID_34_" gradientUnits="userSpaceOnUse" x1="-2863.1094" y1="3766.4124" x2="-2863.1094" y2="3331.0325" gradientTransform="matrix(0.71 -0.71 -0.71 -0.71 5559.6104 908.2599)">
					<stop  offset="0" style="stop-color:#6380FF;stop-opacity:0.5"/>
					<stop  offset="0.27" style="stop-color:#6380FF;stop-opacity:0.35"/>
					<stop  offset="0.77" style="stop-color:#6380FF;stop-opacity:0.1"/>
					<stop  offset="1" style="stop-color:#6380FF;stop-opacity:0"/>
				</linearGradient>
				<path class="st26" d="M1185.8,532.9L915.9,262l-59.6,15.4l-13.4,47.4l270.8,271.3l59.4-16.1L1185.8,532.9L1185.8,532.9z"/>
				
					<linearGradient id="SVGID_35_" gradientUnits="userSpaceOnUse" x1="-2884.3665" y1="3734.8325" x2="-2884.3665" y2="3364.9424" gradientTransform="matrix(0.71 -0.71 -0.71 -0.71 5559.6104 908.2599)">
					<stop  offset="0" style="stop-color:#6380FF;stop-opacity:0.5"/>
					<stop  offset="0.27" style="stop-color:#6380FF;stop-opacity:0.35"/>
					<stop  offset="0.77" style="stop-color:#6380FF;stop-opacity:0.1"/>
					<stop  offset="1" style="stop-color:#6380FF;stop-opacity:0"/>
				</linearGradient>
				<path class="st27" d="M899.1,305.6l-56.2,19.2l270.8,271.3l59.4-16.1L899.1,305.6L899.1,305.6z"/>
				
					<linearGradient id="SVGID_36_" gradientUnits="userSpaceOnUse" x1="857.1068" y1="561.7133" x2="925.3068" y2="628.9433" gradientTransform="matrix(1 0 0 -1 0 900)">
					<stop  offset="0" style="stop-color:#ACBEFF"/>
					<stop  offset="0.43" style="stop-color:#C5D2FF"/>
					<stop  offset="1" style="stop-color:#EBF1FF"/>
				</linearGradient>
				<path class="st28" d="M903.6,317.4L851.2,331c-1,0.3-2.1,0-2.9-0.8l-5.1-5.1l73-62.8l4.9,5c0.8,0.8,1.1,1.9,0.8,2.9l-11.2,40.1
					C909.8,313.8,907.1,316.5,903.6,317.4L903.6,317.4z"/>
				<path class="st14" d="M897.4,310.4L843,324.5l13.3-47.1l59.6-15.4l-11.8,41.9C903.2,307.1,900.6,309.6,897.4,310.4z"/>
				<path class="st29" d="M897.4,310.4L843,324.5l13.3-47.1l59.6-15.4l-11.8,41.9C903.2,307.1,900.6,309.6,897.4,310.4z"/>
				<path class="st30" d="M845.3,316.2l12.2-12.6c1.1-1.1,2.8-1.1,3.8,0c0.1,0.1,0.1,0.1,0.2,0.2l2.1,2.5c1,1.1,2.7,1.3,3.8,0.3
					c0.1-0.1,0.1-0.1,0.2-0.2l23.5-24.3c1-1.1,2.8-1.1,3.8-0.1c0.1,0.1,0.2,0.2,0.2,0.2l11.2,13.8l-1.8,6.5c-1.1,4-4.3,7.1-8.3,8.2
					l-53.2,14L845.3,316.2z M865,290.7c0.8-3,3.8-6,6.5-6.7s4.3,1.2,3.4,4.2s-3.8,6-6.5,6.7S864.2,293.7,865,290.7z"/>
				<path class="st14" d="M910.2,267.6l-9.7,34.4c-0.7,2.3-2.5,4.1-4.9,4.8l-47.4,12.5l11.3-38.5L910.2,267.6 M915.9,262l-59.6,15.4
					l-14,47.5l54.3-14.3c3.7-1,6.7-3.8,7.7-7.5L915.9,262L915.9,262z"/>
			</g>
			<g class="st22">
				
					<linearGradient id="SVGID_37_" gradientUnits="userSpaceOnUse" x1="-2994.0842" y1="3470.019" x2="-2945.3943" y2="3288.5791" gradientTransform="matrix(0.71 -0.71 -0.71 -0.71 5559.6104 908.2599)">
					<stop  offset="0" style="stop-color:#6380FF;stop-opacity:0.5"/>
					<stop  offset="0.24" style="stop-color:#6380FF;stop-opacity:0.35"/>
					<stop  offset="0.69" style="stop-color:#6380FF;stop-opacity:0.1"/>
					<stop  offset="0.9" style="stop-color:#6380FF;stop-opacity:0"/>
				</linearGradient>
				<path class="st31" d="M1133.1,664.1l-128.5-129.5l-13.3,48.7l128.8,129.2L1133.1,664.1L1133.1,664.1z"/>
				
					<linearGradient id="SVGID_38_" gradientUnits="userSpaceOnUse" x1="-2990.4131" y1="3465.6733" x2="-3035.093" y2="3298.6533" gradientTransform="matrix(0.71 -0.71 -0.71 -0.71 5559.6104 908.2599)">
					<stop  offset="0" style="stop-color:#6380FF;stop-opacity:0.8"/>
					<stop  offset="4.000000e-02" style="stop-color:#6380FF;stop-opacity:0.76"/>
					<stop  offset="0.47" style="stop-color:#6380FF;stop-opacity:0.36"/>
					<stop  offset="0.77" style="stop-color:#6380FF;stop-opacity:0.1"/>
					<stop  offset="0.91" style="stop-color:#6380FF;stop-opacity:0"/>
				</linearGradient>
				<path class="st32" d="M988,583.9L929.7,599l129.4,130l61-16.5L993.4,585.4C992,583.9,989.9,583.4,988,583.9L988,583.9z"/>
			</g>
			
				<linearGradient id="SVGID_39_" gradientUnits="userSpaceOnUse" x1="928.0599" y1="314.3402" x2="987.83" y2="332.2002" gradientTransform="matrix(1 0 0 -1 0 900)">
				<stop  offset="0" style="stop-color:#0085D2"/>
				<stop  offset="0.46" style="stop-color:#009ED2"/>
				<stop  offset="1" style="stop-color:#00C0D2"/>
			</linearGradient>
			<path class="st33" d="M997.9,591.9l-57.1,16c-1.1,0.3-2.3,0-3-0.8l-6.6-6.8l74.5-64.9l5.8,5.8c0.8,0.8,1.1,1.9,0.8,3l-12.1,45.7
				C999.8,590.8,999,591.7,997.9,591.9L997.9,591.9z"/>
			
				<linearGradient id="SVGID_40_" gradientUnits="userSpaceOnUse" x1="996.3825" y1="313.2343" x2="1008.2125" y2="360.5644" gradientTransform="matrix(1 0 0 -1 0 900)">
				<stop  offset="0" style="stop-color:#ACBEFF"/>
				<stop  offset="0.52" style="stop-color:#C3D7FF"/>
				<stop  offset="1" style="stop-color:#DBF1FF"/>
			</linearGradient>
			<path class="st34" d="M997.5,589.8l-5.7-5.2l14-49.3l5.7,5.7c0.8,0.8,1.2,2.1,0.9,3.2l-12,44.8c-0.2,0.9-1.1,1.4-2,1.2
				C997.9,590.1,997.7,590,997.5,589.8L997.5,589.8z"/>
			<path class="st35" d="M1003.3,534.9l-30.5,8.7c-1.7,0.5-2.8-0.3-2.4-1.7s-0.6-2.3-2.4-1.8l-18.8,5.3c-1.8,0.5-3.2,1.8-3.9,3.6
				l-0.8,2.7L932,596.2c-0.5,1.9,0.6,3.9,2.5,4.5c0.6,0.2,1.3,0.2,2,0l55.7-15.8l13.5-48.2C1006.1,535.2,1005,534.4,1003.3,534.9
				L1003.3,534.9z"/>
			
				<linearGradient id="SVGID_41_" gradientUnits="userSpaceOnUse" x1="971.5122" y1="312.5641" x2="966.9622" y2="348.0042" gradientTransform="matrix(1 0 0 -1 0 900)">
				<stop  offset="0" style="stop-color:#6380FF;stop-opacity:0.5"/>
				<stop  offset="0.27" style="stop-color:#6380FF;stop-opacity:0.35"/>
				<stop  offset="0.77" style="stop-color:#6380FF;stop-opacity:0.1"/>
				<stop  offset="1" style="stop-color:#6380FF;stop-opacity:0"/>
			</linearGradient>
			<path class="st36" d="M1003.3,534.9l-30.5,8.7c-1.7,0.5-2.8-0.3-2.4-1.7s-0.6-2.3-2.4-1.8l-18.8,5.3c-1.8,0.5-3.2,1.8-3.9,3.6
				l-0.8,2.7L932,596.2c-0.8,2.7,2.4,3.1,5.2,2.3l55-13.7l13.5-48.2C1006.1,535.2,1005,534.4,1003.3,534.9L1003.3,534.9z"/>
			<path class="st35" d="M986.5,547.5l-55.5,15.8c-1,0.3-1.7,1.3-1.7,2.3l0.9,32.1c0.1,2.1,1.8,3.7,3.8,3.6c0.3,0,0.6-0.1,0.9-0.1
				l57.3-16.3l-0.9-33.9c-0.1-2.1-1.8-3.7-3.8-3.6C987.1,547.3,986.8,547.4,986.5,547.5L986.5,547.5z"/>
			
				<linearGradient id="SVGID_42_" gradientUnits="userSpaceOnUse" x1="968.4984" y1="307.7936" x2="953.0884" y2="343.0037" gradientTransform="matrix(1 0 0 -1 0 900)">
				<stop  offset="0" style="stop-color:#00D7D2"/>
				<stop  offset="0.27" style="stop-color:#00D7D2;stop-opacity:0.88"/>
				<stop  offset="0.84" style="stop-color:#00D7D2;stop-opacity:0.59"/>
				<stop  offset="1" style="stop-color:#00D7D2;stop-opacity:0.5"/>
			</linearGradient>
			<path class="st37" d="M986.5,547.5l-55.5,15.8c-1,0.3-1.7,1.3-1.7,2.3l0.9,32.1c0.1,2.1,1.8,3.7,3.8,3.6c0.3,0,0.6-0.1,0.9-0.1
				l57.3-16.3l-0.9-33.9c-0.1-2.1-1.8-3.7-3.8-3.6C987.1,547.3,986.8,547.4,986.5,547.5L986.5,547.5z"/>
			<g class="st22">
				
					<linearGradient id="SVGID_43_" gradientUnits="userSpaceOnUse" x1="-2845.6758" y1="3765.6621" x2="-2833.6157" y2="3720.7122" gradientTransform="matrix(0.71 -0.71 -0.71 -0.71 5559.6104 908.2599)">
					<stop  offset="0" style="stop-color:#6380FF;stop-opacity:0.4"/>
					<stop  offset="9.000000e-02" style="stop-color:#6380FF;stop-opacity:0.35"/>
					<stop  offset="0.62" style="stop-color:#6380FF;stop-opacity:0.1"/>
					<stop  offset="0.87" style="stop-color:#6380FF;stop-opacity:0"/>
				</linearGradient>
				<path class="st38" d="M916,262.3l-25-25.2l-14,46.4l26.3,25.9L916,262.3L916,262.3z"/>
				
					<linearGradient id="SVGID_44_" gradientUnits="userSpaceOnUse" x1="-2876.1526" y1="3763.9165" x2="-2887.9326" y2="3719.8665" gradientTransform="matrix(0.71 -0.71 -0.71 -0.71 5559.6104 908.2599)">
					<stop  offset="0" style="stop-color:#6380FF;stop-opacity:0.8"/>
					<stop  offset="4.000000e-02" style="stop-color:#6380FF;stop-opacity:0.76"/>
					<stop  offset="0.52" style="stop-color:#6380FF;stop-opacity:0.36"/>
					<stop  offset="0.85" style="stop-color:#6380FF;stop-opacity:0.1"/>
					<stop  offset="1" style="stop-color:#6380FF;stop-opacity:0"/>
				</linearGradient>
				<path class="st39" d="M817.9,299.8l25.9,25.7l59.4-16l-25.9-25.6L817.9,299.8z"/>
				
					<linearGradient id="SVGID_45_" gradientUnits="userSpaceOnUse" x1="826.7249" y1="592.0955" x2="894.9249" y2="659.3256" gradientTransform="matrix(1 0 0 -1 0 900)">
					<stop  offset="0" style="stop-color:#D3EBF7"/>
					<stop  offset="0.11" style="stop-color:#D6EDF8"/>
					<stop  offset="1" style="stop-color:#EFFAFF"/>
				</linearGradient>
				<path class="st40" d="M873.2,287l-52.4,13.6c-1,0.3-2.1,0-2.9-0.8l-5.1-5.1l73-62.8l4.9,5c0.8,0.8,1.1,1.9,0.8,2.9L880.4,280
					C879.4,283.4,876.7,286.1,873.2,287z"/>
				<path class="st14" d="M867.4,280.4L813,294.5l13.3-47.1l59.6-15.4L874,273.9C873.1,277.1,870.6,279.6,867.4,280.4z"/>
				<path class="st41" d="M867.4,280.4L813,294.5l13.3-47.1l59.6-15.4L874,273.9C873.1,277.1,870.6,279.6,867.4,280.4z"/>
				<path class="st42" d="M815.3,286.2l12.2-12.6c1.1-1.1,2.8-1.1,3.8,0c0.1,0.1,0.1,0.1,0.2,0.2l2.1,2.5c1,1.1,2.7,1.3,3.8,0.3
					c0.1-0.1,0.1-0.1,0.2-0.2l23.5-24.3c1-1.1,2.8-1.1,3.8-0.1c0.1,0.1,0.2,0.2,0.2,0.2l11.2,13.8l-1.8,6.5c-1.1,4-4.3,7.1-8.3,8.2
					l-53.2,14L815.3,286.2z M835,260.6c0.8-3,3.8-6,6.5-6.7s4.3,1.2,3.4,4.2s-3.8,6-6.5,6.7S834.2,263.7,835,260.6z"/>
				<path class="st14" d="M880.1,237.6l-10,35.4c-0.5,1.7-1.9,3.1-3.6,3.5L818,289.3l11.4-38.6L880.1,237.6 M885.8,232l-59.6,15.4
					l-14,47.6l55.3-14.6c3.1-0.8,5.6-3.2,6.4-6.3L885.8,232L885.8,232z"/>
			</g>
			<g class="st22">
				
					<linearGradient id="SVGID_46_" gradientUnits="userSpaceOnUse" x1="-2887.3418" y1="3437.7324" x2="-2887.3418" y2="3315.2625" gradientTransform="matrix(0.71 -0.71 -0.71 -0.71 5559.6104 908.2599)">
					<stop  offset="0" style="stop-color:#6380FF;stop-opacity:0.5"/>
					<stop  offset="0.24" style="stop-color:#6380FF;stop-opacity:0.35"/>
					<stop  offset="0.69" style="stop-color:#6380FF;stop-opacity:0.1"/>
					<stop  offset="0.9" style="stop-color:#6380FF;stop-opacity:0"/>
				</linearGradient>
				<path class="st43" d="M1166.5,593.9l-74.7-74.8l-16.9,4.5l-4.5,16.9l74.7,74.9l16.9-4.5L1166.5,593.9z"/>
				
					<linearGradient id="SVGID_47_" gradientUnits="userSpaceOnUse" x1="-2894.7219" y1="3426.9124" x2="-2894.7219" y2="3324.6223" gradientTransform="matrix(0.71 -0.71 -0.71 -0.71 5559.6104 908.2599)">
					<stop  offset="0" style="stop-color:#6380FF;stop-opacity:0.8"/>
					<stop  offset="4.000000e-02" style="stop-color:#6380FF;stop-opacity:0.76"/>
					<stop  offset="0.47" style="stop-color:#6380FF;stop-opacity:0.36"/>
					<stop  offset="0.77" style="stop-color:#6380FF;stop-opacity:0.1"/>
					<stop  offset="0.91" style="stop-color:#6380FF;stop-opacity:0"/>
				</linearGradient>
				<path class="st44" d="M1087.1,535.2l-16.7,5.2l74.7,74.9l16.9-4.5L1087.1,535.2L1087.1,535.2z"/>
				
					<linearGradient id="SVGID_48_" gradientUnits="userSpaceOnUse" x1="1075.4172" y1="354.8128" x2="1096.9471" y2="376.0228" gradientTransform="matrix(1 0 0 -1 0 900)">
					<stop  offset="0" style="stop-color:#ACBEFF"/>
					<stop  offset="0.52" style="stop-color:#C3D7FF"/>
					<stop  offset="1" style="stop-color:#DBF1FF"/>
				</linearGradient>
				<path class="st45" d="M1090.9,539.8l-15.7,4.7c-0.4,0.1-0.7,0-1-0.3l-3.8-3.8l21.4-21.4l3.8,3.8c0.3,0.3,0.4,0.6,0.3,1
					l-4.3,15.3C1091.5,539.4,1091.2,539.7,1090.9,539.8z"/>
				<path class="st14" d="M1091.8,519l-16.9,4.5l-4.5,16.9l15.9-5c0.5-0.1,0.9-0.5,1-1L1091.8,519z"/>
			</g>
		</g>
		
			<linearGradient id="SVGID_49_" gradientUnits="userSpaceOnUse" x1="-3017.1563" y1="3676.6084" x2="-2968.5764" y2="3495.6184" gradientTransform="matrix(0.71 -0.71 -0.71 -0.71 5559.6104 908.2599)">
			<stop  offset="0" style="stop-color:#6380FF;stop-opacity:0.5"/>
			<stop  offset="0.24" style="stop-color:#6380FF;stop-opacity:0.35"/>
			<stop  offset="0.69" style="stop-color:#6380FF;stop-opacity:0.1"/>
			<stop  offset="0.9" style="stop-color:#6380FF;stop-opacity:0"/>
		</linearGradient>
		<path class="st46" d="M970.4,534l-128.3-129l-13.4,48.2l128.8,129.1L970.4,534z"/>
		
			<linearGradient id="SVGID_50_" gradientUnits="userSpaceOnUse" x1="-3020.9656" y1="3680.1426" x2="-3066.8455" y2="3508.6025" gradientTransform="matrix(0.71 -0.71 -0.71 -0.71 5559.6104 908.2599)">
			<stop  offset="0" style="stop-color:#6380FF;stop-opacity:0.8"/>
			<stop  offset="4.000000e-02" style="stop-color:#6380FF;stop-opacity:0.76"/>
			<stop  offset="0.47" style="stop-color:#6380FF;stop-opacity:0.36"/>
			<stop  offset="0.77" style="stop-color:#6380FF;stop-opacity:0.1"/>
			<stop  offset="0.91" style="stop-color:#6380FF;stop-opacity:0"/>
		</linearGradient>
		<path class="st47" d="M747.6,473.9l128.6,129l81.3-20.7L828.2,452.6L747.6,473.9L747.6,473.9z"/>
		
			<linearGradient id="SVGID_51_" gradientUnits="userSpaceOnUse" x1="766.982" y1="407.7979" x2="849.052" y2="488.698" gradientTransform="matrix(1 0 0 -1 0 900)">
			<stop  offset="0" style="stop-color:#5161EF"/>
			<stop  offset="0.54" style="stop-color:#667AF7"/>
			<stop  offset="1" style="stop-color:#7B92FF"/>
		</linearGradient>
		<path class="st48" d="M835,461.2l-78.3,19.6c-1,0.3-2.1,0-2.8-0.8l-5.9-5.8l94.3-69.1l5.8,5.9c0.8,0.8,1,1.8,0.8,2.9l-11.8,45.2
			C836.9,460.1,836,460.9,835,461.2z"/>
		
			<linearGradient id="SVGID_52_" gradientUnits="userSpaceOnUse" x1="815.6297" y1="437.0686" x2="753.8397" y2="507.0986" gradientTransform="matrix(1 0 0 -1 0 900)">
			<stop  offset="0" style="stop-color:#333DC3"/>
			<stop  offset="0.17" style="stop-color:#404BCA"/>
			<stop  offset="0.5" style="stop-color:#636FDD"/>
			<stop  offset="0.94" style="stop-color:#9AAAFB"/>
			<stop  offset="1" style="stop-color:#A2B2FF"/>
		</linearGradient>
		<path class="st49" d="M825.7,455l-76,19.4c-1.7,0.4-2.7-0.4-2.3-1.8l12.9-45.3c0.7-1.7,2.1-2.9,3.8-3.4l76-19.4
			c1.7-0.4,2.7,0.4,2.3,1.8l-12.9,45.3C828.9,453.3,827.5,454.5,825.7,455z"/>
		
			<linearGradient id="SVGID_53_" gradientUnits="userSpaceOnUse" x1="-2801.251" y1="3573.8877" x2="-2745.9011" y2="3367.6777" gradientTransform="matrix(0.71 -0.71 -0.71 -0.71 5559.6104 908.2599)">
			<stop  offset="0" style="stop-color:#6380FF;stop-opacity:0.5"/>
			<stop  offset="0.24" style="stop-color:#6380FF;stop-opacity:0.35"/>
			<stop  offset="0.69" style="stop-color:#6380FF;stop-opacity:0.1"/>
			<stop  offset="0.9" style="stop-color:#6380FF;stop-opacity:0"/>
		</linearGradient>
		<path class="st50" d="M1217.4,464.6l-145.9-146.7l-16.7,55.5l147.4,147.7L1217.4,464.6L1217.4,464.6z"/>
		
			<linearGradient id="SVGID_54_" gradientUnits="userSpaceOnUse" x1="-2791.5146" y1="3563.6838" x2="-2841.3545" y2="3377.3938" gradientTransform="matrix(0.71 -0.71 -0.71 -0.71 5559.6104 908.2599)">
			<stop  offset="0" style="stop-color:#6380FF;stop-opacity:0.8"/>
			<stop  offset="4.000000e-02" style="stop-color:#6380FF;stop-opacity:0.76"/>
			<stop  offset="0.47" style="stop-color:#6380FF;stop-opacity:0.36"/>
			<stop  offset="0.77" style="stop-color:#6380FF;stop-opacity:0.1"/>
			<stop  offset="0.91" style="stop-color:#6380FF;stop-opacity:0"/>
		</linearGradient>
		<path class="st51" d="M1001.8,388.2L1149,535.9l53.6-14.5l-147.2-147.6L1001.8,388.2L1001.8,388.2z"/>
		
			<linearGradient id="SVGID_55_" gradientUnits="userSpaceOnUse" x1="1015.2139" y1="499.2262" x2="1085.5439" y2="568.5562" gradientTransform="matrix(1 0 0 -1 0 900)">
			<stop  offset="0" style="stop-color:#ACBEFF"/>
			<stop  offset="0.52" style="stop-color:#C3D7FF"/>
			<stop  offset="1" style="stop-color:#DBF1FF"/>
		</linearGradient>
		<path class="st52" d="M1061.4,382l-50.5,13.2c-1,0.3-2.1,0-2.9-0.8l-6.3-6.2l69.8-70.4l6,6c0.8,0.8,1.1,1.9,0.8,2.9l-14.7,53.1
			C1063.3,380.9,1062.5,381.7,1061.4,382z"/>
		<path class="st14" d="M1054.6,374.5l-51.7,13.8c-1,0.3-1.6-0.2-1.4-1.1l15-53.8c0.4-1,1.2-1.7,2.2-2l51.7-13.8
			c1-0.3,1.6,0.2,1.4,1.1l-15,53.8C1056.4,373.5,1055.6,374.3,1054.6,374.5z"/>
		
			<linearGradient id="SVGID_56_" gradientUnits="userSpaceOnUse" x1="-3079.2029" y1="3595.9241" x2="-3121.3027" y2="3438.554" gradientTransform="matrix(0.71 -0.71 -0.71 -0.71 5559.6104 908.2599)">
			<stop  offset="0" style="stop-color:#6380FF;stop-opacity:0.8"/>
			<stop  offset="4.000000e-02" style="stop-color:#6380FF;stop-opacity:0.76"/>
			<stop  offset="0.47" style="stop-color:#6380FF;stop-opacity:0.36"/>
			<stop  offset="0.77" style="stop-color:#6380FF;stop-opacity:0.1"/>
			<stop  offset="0.91" style="stop-color:#6380FF;stop-opacity:0"/>
		</linearGradient>
		<path class="st53" d="M782.5,565.4l124.6,125l44-11.9L826.5,553.6L782.5,565.4z"/>
		
			<linearGradient id="SVGID_57_" gradientUnits="userSpaceOnUse" x1="793.4012" y1="324.4188" x2="851.3812" y2="381.5789" gradientTransform="matrix(1 0 0 -1 0 900)">
			<stop  offset="0" style="stop-color:#ACBEFF"/>
			<stop  offset="0.52" style="stop-color:#C3D7FF"/>
			<stop  offset="1" style="stop-color:#DBF1FF"/>
		</linearGradient>
		<path class="st54" d="M831.6,560.9l-41.2,10.4c-1,0.3-2.1,0-2.8-0.8l-5.2-5.1l56.9-58.7l5,5c0.7,0.7,1,1.8,0.8,2.9l-11.3,44.1
			C833.5,559.8,832.7,560.6,831.6,560.9L831.6,560.9z"/>
		<path class="st14" d="M825.7,554.5l-42,11.2c-0.8,0.2-1.3-0.2-1.1-0.8l12.1-45.5c0.3-0.8,0.9-1.4,1.7-1.6l42-11.1
			c0.8-0.2,1.3,0.2,1.1,0.9l-12.1,45.5C827.1,553.7,826.4,554.3,825.7,554.5L825.7,554.5z"/>
		
			<linearGradient id="SVGID_58_" gradientUnits="userSpaceOnUse" x1="-3089.3171" y1="3607.0266" x2="-3042.2273" y2="3431.5867" gradientTransform="matrix(0.71 -0.71 -0.71 -0.71 5559.6104 908.2599)">
			<stop  offset="0" style="stop-color:#6380FF;stop-opacity:0.5"/>
			<stop  offset="0.24" style="stop-color:#6380FF;stop-opacity:0.35"/>
			<stop  offset="0.69" style="stop-color:#6380FF;stop-opacity:0.1"/>
			<stop  offset="0.9" style="stop-color:#6380FF;stop-opacity:0"/>
		</linearGradient>
		<path class="st55" d="M963.7,631.8L839.3,506.7l-13,46.7l124.8,125.1L963.7,631.8L963.7,631.8z"/>
		<g>
			<defs>
				<path id="SVGID_59_" d="M945.6,709L882,645.2c-0.4-0.4-0.9-0.5-1.4-0.4l-13.6,3.6c-0.5,0.1-0.9,0.5-1,1l-3.6,13.6
					c-0.1,0.5,0,1,0.4,1.4l63.6,63.8c0.4,0.4,0.9,0.5,1.4,0.4l13.5-3.6c0.5-0.1,0.9-0.5,1-1l3.6-13.6
					C946.1,709.9,945.9,709.4,945.6,709L945.6,709z"/>
			</defs>
			<clipPath id="SVGID_60_">
				<use xlink:href="#SVGID_59_"  style="overflow:visible;"/>
			</clipPath>
			<g class="st56">
				
					<linearGradient id="SVGID_61_" gradientUnits="userSpaceOnUse" x1="-3122.5215" y1="3496.7625" x2="-3122.5215" y2="3389.9124" gradientTransform="matrix(0.71 -0.71 -0.71 -0.71 5559.6104 908.2599)">
					<stop  offset="0" style="stop-color:#6380FF;stop-opacity:0.5"/>
					<stop  offset="0.24" style="stop-color:#6380FF;stop-opacity:0.35"/>
					<stop  offset="0.69" style="stop-color:#6380FF;stop-opacity:0.1"/>
					<stop  offset="0.9" style="stop-color:#6380FF;stop-opacity:0"/>
				</linearGradient>
				<path class="st57" d="M946.2,709.6l-64.8-65l-15.2,4.1l-4.1,15.2l64.8,65l15.2-4.1L946.2,709.6L946.2,709.6z"/>
				
					<linearGradient id="SVGID_62_" gradientUnits="userSpaceOnUse" x1="-3129.1621" y1="3487.0825" x2="-3129.1621" y2="3398.0625" gradientTransform="matrix(0.71 -0.71 -0.71 -0.71 5559.6104 908.2599)">
					<stop  offset="0" style="stop-color:#6380FF;stop-opacity:0.8"/>
					<stop  offset="4.000000e-02" style="stop-color:#6380FF;stop-opacity:0.76"/>
					<stop  offset="0.47" style="stop-color:#6380FF;stop-opacity:0.36"/>
					<stop  offset="0.77" style="stop-color:#6380FF;stop-opacity:0.1"/>
					<stop  offset="0.91" style="stop-color:#6380FF;stop-opacity:0"/>
				</linearGradient>
				<path class="st58" d="M877.1,659.2l-15,4.7l64.8,65l15.2-4.1L877.1,659.2L877.1,659.2z"/>
				
					<linearGradient id="SVGID_63_" gradientUnits="userSpaceOnUse" x1="866.9581" y1="231.432" x2="886.3282" y2="250.522" gradientTransform="matrix(1 0 0 -1 0 900)">
					<stop  offset="0" style="stop-color:#ACBEFF"/>
					<stop  offset="0.52" style="stop-color:#C3D7FF"/>
					<stop  offset="1" style="stop-color:#DBF1FF"/>
				</linearGradient>
				<path class="st59" d="M881,664.3l-13.8,4.2c-0.3,0.1-0.7,0-0.9-0.2l-4.3-4.3l19.3-19.3l4.2,4.2c0.2,0.2,0.3,0.6,0.2,0.9
					l-3.8,13.5C881.9,663.7,881.5,664.1,881,664.3z"/>
				<path class="st14" d="M881.4,644.6l-15.2,4.1l-4.1,15.2l14.2-4.5c0.5-0.1,0.9-0.5,1-1L881.4,644.6z"/>
			</g>
		</g>
		<g>
			<defs>
				<path id="SVGID_64_" d="M1250.2,394.1l-46.1-46.2c-0.4-0.4-0.9-0.5-1.4-0.4l-6.8,1.8c-0.5,0.1-0.9,0.5-1,1l-1.8,6.8
					c-0.1,0.5,0,1,0.4,1.4l46.1,46.2c0.4,0.4,0.9,0.5,1.4,0.4l6.8-1.8c0.5-0.1,0.9-0.5,1-1l1.8-6.8
					C1250.7,395,1250.6,394.5,1250.2,394.1z"/>
			</defs>
			<clipPath id="SVGID_65_">
				<use xlink:href="#SVGID_64_"  style="overflow:visible;"/>
			</clipPath>
			<g class="st60">
				
					<linearGradient id="SVGID_66_" gradientUnits="userSpaceOnUse" x1="-2680.1938" y1="3475.9224" x2="-2680.1938" y2="3400.6924" gradientTransform="matrix(0.71 -0.71 -0.71 -0.71 5559.6104 908.2599)">
					<stop  offset="0" style="stop-color:#6380FF;stop-opacity:0.5"/>
					<stop  offset="0.24" style="stop-color:#6380FF;stop-opacity:0.35"/>
					<stop  offset="0.69" style="stop-color:#6380FF;stop-opacity:0.1"/>
					<stop  offset="0.9" style="stop-color:#6380FF;stop-opacity:0"/>
				</linearGradient>
				<path class="st61" d="M1250.8,394.7l-47.3-47.4l-8.4,2.3l-2.3,8.4l47.3,47.4l8.4-2.3L1250.8,394.7z"/>
				
					<linearGradient id="SVGID_67_" gradientUnits="userSpaceOnUse" x1="-2683.863" y1="3470.2825" x2="-2683.863" y2="3406.5425" gradientTransform="matrix(0.71 -0.71 -0.71 -0.71 5559.6104 908.2599)">
					<stop  offset="0" style="stop-color:#6380FF;stop-opacity:0.8"/>
					<stop  offset="4.000000e-02" style="stop-color:#6380FF;stop-opacity:0.76"/>
					<stop  offset="0.47" style="stop-color:#6380FF;stop-opacity:0.36"/>
					<stop  offset="0.77" style="stop-color:#6380FF;stop-opacity:0.1"/>
					<stop  offset="0.91" style="stop-color:#6380FF;stop-opacity:0"/>
				</linearGradient>
				<path class="st62" d="M1201.1,355.3l-8.3,2.6l47.3,47.4l8.4-2.3L1201.1,355.3z"/>
				
					<linearGradient id="SVGID_68_" gradientUnits="userSpaceOnUse" x1="1195.7054" y1="539.2746" x2="1206.4155" y2="549.8246" gradientTransform="matrix(1 0 0 -1 0 900)">
					<stop  offset="0" style="stop-color:#ACBEFF"/>
					<stop  offset="0.52" style="stop-color:#C3D7FF"/>
					<stop  offset="1" style="stop-color:#DBF1FF"/>
				</linearGradient>
				<path class="st63" d="M1203.6,358.6l-7.5,2.3c-0.2,0.1-0.4,0-0.5-0.1l-2.8-2.8l10.7-10.7l2.8,2.8c0.1,0.1,0.2,0.3,0.1,0.5
					l-2.1,7.4C1204.2,358.2,1203.9,358.5,1203.6,358.6L1203.6,358.6z"/>
				<path class="st14" d="M1203.5,347.3l-8.4,2.3l-2.3,8.4l7.8-2.4c0.3-0.1,0.6-0.4,0.7-0.7L1203.5,347.3z"/>
			</g>
		</g>
		<g>
			<defs>
				<path id="SVGID_69_" d="M1221.7,438l-82.1-82.4c-0.4-0.4-0.9-0.5-1.4-0.4l-22.6,6c-0.5,0.1-0.9,0.5-1,1l-6.1,22.6
					c-0.1,0.5,0,1,0.4,1.4l82,82.4c0.4,0.4,0.9,0.5,1.4,0.4l22.6-6c0.5-0.1,0.9-0.5,1-1l6.1-22.6
					C1222.2,439,1222.1,438.4,1221.7,438L1221.7,438z"/>
			</defs>
			<clipPath id="SVGID_70_">
				<use xlink:href="#SVGID_69_"  style="overflow:visible;"/>
			</clipPath>
			<g class="st64">
				
					<linearGradient id="SVGID_71_" gradientUnits="userSpaceOnUse" x1="-2745.2185" y1="3524.1423" x2="-2745.2185" y2="3381.9624" gradientTransform="matrix(0.71 -0.71 -0.71 -0.71 5559.6104 908.2599)">
					<stop  offset="0" style="stop-color:#6380FF;stop-opacity:0.5"/>
					<stop  offset="0.24" style="stop-color:#6380FF;stop-opacity:0.35"/>
					<stop  offset="0.69" style="stop-color:#6380FF;stop-opacity:0.1"/>
					<stop  offset="0.9" style="stop-color:#6380FF;stop-opacity:0"/>
				</linearGradient>
				<path class="st65" d="M1222.3,438.6l-83.3-83.5l-24.2,6.5l-6.5,24.2l83.3,83.5l24.2-6.5L1222.3,438.6z"/>
				
					<linearGradient id="SVGID_72_" gradientUnits="userSpaceOnUse" x1="-2755.7959" y1="3509.2324" x2="-2755.7959" y2="3392.6223" gradientTransform="matrix(0.71 -0.71 -0.71 -0.71 5559.6104 908.2599)">
					<stop  offset="0" style="stop-color:#6380FF;stop-opacity:0.8"/>
					<stop  offset="4.000000e-02" style="stop-color:#6380FF;stop-opacity:0.76"/>
					<stop  offset="0.47" style="stop-color:#6380FF;stop-opacity:0.36"/>
					<stop  offset="0.77" style="stop-color:#6380FF;stop-opacity:0.1"/>
					<stop  offset="0.91" style="stop-color:#6380FF;stop-opacity:0"/>
				</linearGradient>
				<path class="st66" d="M1132.2,378.3l-23.9,7.5l83.3,83.5l24.2-6.5L1132.2,378.3L1132.2,378.3z"/>
				
					<linearGradient id="SVGID_73_" gradientUnits="userSpaceOnUse" x1="1115.2111" y1="507.6989" x2="1146.0511" y2="538.0989" gradientTransform="matrix(1 0 0 -1 0 900)">
					<stop  offset="0" style="stop-color:#ACBEFF"/>
					<stop  offset="0.52" style="stop-color:#C3D7FF"/>
					<stop  offset="1" style="stop-color:#DBF1FF"/>
				</linearGradient>
				<path class="st67" d="M1137.1,384.3l-22.4,6.8c-0.5,0.2-1,0-1.4-0.4l-4.9-4.9L1139,355l4.8,4.8c0.4,0.4,0.5,0.9,0.4,1.4l-6.1,22
					C1137.9,383.7,1137.6,384.1,1137.1,384.3z"/>
				<path class="st14" d="M1139,355.1l-24.2,6.5l-6.5,24.2l22.8-7.2c0.6-0.2,1.1-0.7,1.3-1.3L1139,355.1z"/>
			</g>
		</g>
		<g>
			<g>
				<path class="st68" d="M1023.4,348.9c1.6-5.1,6.4-8.4,11.8-8.6l3.9-3.8c-8.8-1.5-17.4,3.1-19.9,11.1c-2.3,7.3,1.3,15.1,8,19.3
					l1.7-3.7C1024.1,359.9,1021.7,354.2,1023.4,348.9z"/>
				<path class="st68" d="M1054.1,358.4c2.3-7.3-1.3-15.1-8-19.3l-1.7,3.7c4.8,3.2,7.2,8.9,5.5,14.3c-1.6,5-6.3,8.3-11.7,8.6l-4,3.8
					C1043.1,371.1,1051.7,366.4,1054.1,358.4z"/>
				<path class="st68" d="M1047.3,354.2c0.3-0.2,0.3-0.6,0.2-0.9c-0.1-0.3-0.4-0.6-0.8-0.7l-8-2.5l5.9-13.1c0.2-0.4,0-1-0.4-1.3
					c-0.1-0.1-0.2-0.1-0.3-0.1c-0.4-0.1-0.8,0-1.1,0.2l-16.9,16.5c-0.3,0.2-0.4,0.6-0.3,1c0.1,0.3,0.4,0.7,0.7,0.8l7.9,2.4
					l-5.7,12.6c-0.2,0.4,0,0.9,0.4,1.2c0.1,0.1,0.2,0.1,0.3,0.1c0.4,0.1,0.8,0,1.1-0.2L1047.3,354.2z"/>
			</g>
			<g>
			</g>
			<g>
			</g>
			<g>
			</g>
			<g>
			</g>
			<g>
			</g>
			<g>
			</g>
			<g>
			</g>
			<g>
			</g>
			<g>
			</g>
			<g>
			</g>
			<g>
			</g>
			<g>
			</g>
			<g>
			</g>
			<g>
			</g>
			<g>
			</g>
		</g>
		<g>
			<g>
				<g>
					<path class="st68" d="M827.2,545.3l-7.9-6.9c-1.2,1.6-2.7,2.9-4.5,4l7.9,6.9c1.3,1.1,3.3,1.1,4.5,0
						C828.5,548.1,828.5,546.3,827.2,545.3z"/>
					<path class="st68" d="M819.6,531.3c0-6.2-5.7-11.2-12.8-11.2c-7.1,0-12.8,5-12.8,11.2s5.7,11.2,12.8,11.2
						C813.8,542.6,819.6,537.5,819.6,531.3z M806.8,539.8c-5.3,0-9.6-3.8-9.6-8.4s4.3-8.4,9.6-8.4c5.3,0,9.6,3.8,9.6,8.4
						S812.1,539.8,806.8,539.8z"/>
					<path class="st68" d="M799.3,531.3h2.1c0-2.6,2.4-4.7,5.4-4.7v-1.9C802.6,524.8,799.3,527.7,799.3,531.3z"/>
				</g>
			</g>
			<g>
			</g>
			<g>
			</g>
			<g>
			</g>
			<g>
			</g>
			<g>
			</g>
			<g>
			</g>
			<g>
			</g>
			<g>
			</g>
			<g>
			</g>
			<g>
			</g>
			<g>
			</g>
			<g>
			</g>
			<g>
			</g>
			<g>
			</g>
			<g>
			</g>
		</g>
		<g>
			<path class="st14" d="M826.4,427.4c-0.5-1.1-1.5-1.9-2.7-2.2c-0.3-0.1-0.6-0.1-1-0.1l-51.3-1c-1.6,0-3,0.8-3.6,2.2
				c-0.6,1.4-0.2,2.9,0.9,4l8.8,8.3l-3.2,12.5c-0.1,0.5,0.1,1,0.5,1.3c0.4,0.3,1,0.4,1.4,0.2l11.4-4.5l6.8,6.4
				c0.5,0.5,1.2,0.8,1.8,1c1.3,0.3,2.7,0,3.7-0.9l25.6-23.2C826.7,430.4,827.1,428.8,826.4,427.4z M797.2,451l-10.3-9.7l14.6-6.6
				c0.2-0.1,0.3-0.3,0.2-0.5c-0.1-0.2-0.3-0.3-0.5-0.3l-20.2,1.9l-7.7-7.3l47.8,0.9L797.2,451z"/>
			<g>
			</g>
			<g>
			</g>
			<g>
			</g>
			<g>
			</g>
			<g>
			</g>
			<g>
			</g>
			<g>
			</g>
			<g>
			</g>
			<g>
			</g>
			<g>
			</g>
			<g>
			</g>
			<g>
			</g>
			<g>
			</g>
			<g>
			</g>
			<g>
			</g>
		</g>
	</g>
</g>
</svg>
