<svg id="图层_1" data-name="图层 1" xmlns="http://www.w3.org/2000/svg" viewBox="0 0 1726.8 400"><defs><style>.cls-1{font-size:238.14px;fill:#fff;stroke:#fff;stroke-miterlimit:10;stroke-width:12px;font-family:MicrosoftYaHei, Microsoft YaHei;letter-spacing:-0.15em;}.cls-2{letter-spacing:-0.04em;}.cls-3{fill:none;}.cls-4{fill:#708aff;}.cls-5{fill:#3d6edd;}.cls-6{fill:#9dc1ff;}</style></defs><title>未标题-1</title><text class="cls-1" transform="translate(499 278.19) scale(0.93 1)">T<tspan class="cls-2" x="100.47" y="0">eamUranus</tspan></text><path class="cls-3" d="M71.31,349.52c-.53-1.07-1-2.15-1.56-3.23l-.45-1c-.49-1.06-1-2.11-1.45-3.17l-.47-1.07c-.45-1.05-.91-2.09-1.35-3.15l-.45-1.11c-.43-1.06-.86-2.11-1.28-3.18-.13-.34-.26-.69-.4-1-.42-1.1-.84-2.2-1.24-3.31l-.21-.6q-1.79-4.95-3.31-10c-10.91,10.61-15.82,19.53-13.27,25.8s12.31,9.2,27.53,9.17c-.57-1.09-1.13-2.18-1.68-3.28C71.58,350.07,71.45,349.79,71.31,349.52Z" transform="translate(0 -61)"/><path class="cls-3" d="M455.51,177.56c-2.55-6.27-12.3-9.22-27.53-9.18a199,199,0,0,1,14.26,35C453.14,192.74,458.06,183.82,455.51,177.56Z" transform="translate(0 -61)"/><path class="cls-4" d="M364,114.33a199.77,199.77,0,0,0-164.33,86q11-4.82,22.43-9.48c70.08-28.55,136.72-46.19,187.32-51.5A200.25,200.25,0,0,0,303.66,68.1a199.94,199.94,0,0,1,84.53,47.74A200.81,200.81,0,0,0,364,114.33Z" transform="translate(0 -61)"/><path class="cls-4" d="M90.1,380.2c-.58-.78-1.14-1.57-1.71-2.35C89,378.63,89.52,379.42,90.1,380.2Z" transform="translate(0 -61)"/><path class="cls-4" d="M285.19,64c1.2.21,2.4.44,3.59.67C287.59,64.41,286.39,64.18,285.19,64Z" transform="translate(0 -61)"/><path class="cls-4" d="M289.9,64.85c1.28.26,2.56.53,3.83.81C292.46,65.38,291.18,65.11,289.9,64.85Z" transform="translate(0 -61)"/><path class="cls-4" d="M299.14,66.92c1.45.36,2.89.74,4.32,1.13C302,67.66,300.59,67.28,299.14,66.92Z" transform="translate(0 -61)"/><path class="cls-4" d="M442.19,203.39l.05,0a198.69,198.69,0,0,0-14.26-35c-38.62.1-112.51,19.41-193.65,52.47-20.61,8.4-40.26,17.1-58.57,25.86A200,200,0,0,0,226.53,459.5,199.9,199.9,0,0,1,90.39,380.58c.41.56.83,1.12,1.25,1.67A199.66,199.66,0,0,0,250.69,461c110.46,0,200-89.54,200-200a203.77,203.77,0,0,0-1.43-24l0,0A198.44,198.44,0,0,0,442.19,203.39Z" transform="translate(0 -61)"/><path class="cls-4" d="M69.75,346.29c.51,1.08,1,2.16,1.56,3.23C70.78,348.45,70.26,347.37,69.75,346.29Z" transform="translate(0 -61)"/><path class="cls-4" d="M66,337.93c.44,1.06.9,2.1,1.35,3.15C66.93,340,66.47,339,66,337.93Z" transform="translate(0 -61)"/><path class="cls-4" d="M64.3,333.64c.42,1.07.85,2.13,1.28,3.18C65.15,335.77,64.72,334.71,64.3,333.64Z" transform="translate(0 -61)"/><path class="cls-4" d="M62.66,329.29c.4,1.11.82,2.21,1.24,3.31C63.48,331.5,63.06,330.4,62.66,329.29Z" transform="translate(0 -61)"/><path class="cls-4" d="M87,375.85l-.23-.33Z" transform="translate(0 -61)"/><path class="cls-4" d="M67.85,342.15c.47,1.06,1,2.12,1.45,3.17C68.81,344.27,68.32,343.21,67.85,342.15Z" transform="translate(0 -61)"/><path class="cls-4" d="M59.14,318.65h0q1.53,5.09,3.31,10Q60.66,323.74,59.14,318.65Z" transform="translate(0 -61)"/><path class="cls-4" d="M294.55,65.84c1.37.3,2.72.62,4.07,1C297.27,66.46,295.92,66.14,294.55,65.84Z" transform="translate(0 -61)"/><path class="cls-4" d="M51.41,278c-.06-.7-.12-1.4-.17-2.1C51.29,276.55,51.35,277.25,51.41,278Z" transform="translate(0 -61)"/><path class="cls-4" d="M265.77,61.56l2.67.23Z" transform="translate(0 -61)"/><path class="cls-4" d="M50.81,267.64,50.75,266Z" transform="translate(0 -61)"/><path class="cls-4" d="M260.78,61.25c.8,0,1.58.1,2.37.15C262.36,61.35,261.58,61.29,260.78,61.25Z" transform="translate(0 -61)"/><path class="cls-4" d="M255.76,61.07c.63,0,1.26,0,1.89.07C257,61.11,256.39,61.08,255.76,61.07Z" transform="translate(0 -61)"/><path class="cls-4" d="M73.4,353.62h0c-.57-1.09-1.13-2.18-1.68-3.28C72.27,351.44,72.83,352.53,73.4,353.62Z" transform="translate(0 -61)"/><path class="cls-4" d="M280.41,63.2c1.13.17,2.25.36,3.38.54C282.66,63.56,281.54,63.37,280.41,63.2Z" transform="translate(0 -61)"/><path class="cls-4" d="M51.89,282.9c-.08-.72-.16-1.45-.23-2.17C51.73,281.45,51.81,282.18,51.89,282.9Z" transform="translate(0 -61)"/><path class="cls-4" d="M275.58,62.54c1.06.13,2.1.28,3.15.43C277.68,62.82,276.64,62.67,275.58,62.54Z" transform="translate(0 -61)"/><path class="cls-4" d="M270.7,62c1,.1,1.95.22,2.92.33C272.65,62.21,271.68,62.09,270.7,62Z" transform="translate(0 -61)"/><path class="cls-4" d="M51.05,272.9c0-.66-.08-1.31-.11-2C51,271.59,51,272.24,51.05,272.9Z" transform="translate(0 -61)"/><path class="cls-5" d="M226.53,459.88a200,200,0,0,1-50.77-212.79C122,272.8,79.8,299,59.14,319q1.53,5.07,3.31,10l.21.59c.4,1.11.82,2.21,1.24,3.31.14.35.27.7.4,1,.42,1.06.85,2.12,1.28,3.17l.45,1.11c.44,1.06.9,2.11,1.35,3.15.16.36.31.72.47,1.07.47,1.06,1,2.12,1.45,3.17l.45,1c.51,1.08,1,2.16,1.56,3.23l.41.82c.55,1.1,1.11,2.19,1.68,3.28h.11a205.53,205.53,0,0,0,13.23,21.91l.23.33c.46.67.94,1.33,1.42,2s1.13,1.57,1.71,2.35c.1.13.19.26.29.38A199.86,199.86,0,0,0,226.53,459.88Z" transform="translate(0 -61)"/><path class="cls-5" d="M199.69,200.34a199.52,199.52,0,0,1,188.5-84.5,199.92,199.92,0,0,0-84.53-47.73l-.2-.06c-1.43-.39-2.87-.77-4.32-1.13l-.51-.12c-1.36-.33-2.71-.66-4.07-1l-.83-.18c-1.27-.28-2.54-.55-3.82-.81l-1.13-.21c-1.19-.23-2.39-.46-3.59-.67l-1.4-.23c-1.12-.18-2.25-.37-3.38-.54L278.73,63c-1-.15-2.09-.3-3.15-.43l-2-.22c-1-.11-1.94-.23-2.92-.33l-2.26-.2-2.67-.23-2.62-.16c-.78,0-1.57-.11-2.36-.15l-3.14-.12-1.89-.07q-2.52-.06-5.07-.06c-110.45,0-200,89.54-200,200,0,1.66,0,3.32.07,5,0,.55,0,1.1.05,1.65,0,1.1.08,2.2.13,3.3,0,.66.08,1.31.11,2,.06,1,.12,2,.19,3,0,.7.11,1.4.17,2.09.08.93.16,1.86.25,2.79.07.72.15,1.45.23,2.17s.14,1.37.22,2.05C87.69,256.8,139.25,226.76,199.69,200.34Z" transform="translate(0 -61)"/><path class="cls-6" d="M499.73,159.54c-7.74-19-41.59-25.29-90.29-20.18-50.6,5.31-117.24,22.95-187.32,51.5q-11.4,4.65-22.43,9.48C139.25,226.76,87.69,256.8,52.11,285,13.72,315.31-6.08,343.47,1.66,362.46s41.59,25.27,90.26,20.17l-.28-.38c-.42-.55-.84-1.11-1.25-1.67-.1-.13-.19-.26-.29-.38l-1.71-2.35-1.42-2-.23-.33A166,166,0,0,1,73.51,353l-.11,1h0c-15.22-.35-25-3.29-27.53-9.56s2.36-15.18,13.27-25.79h0C79.8,298.57,122,272.42,175.76,246.71c18.31-8.76,38-17.46,58.57-25.86,81.14-33.06,155-52.37,193.65-52.47,15.23,0,25,2.91,27.53,9.18s-2.37,15.18-13.27,25.78l-.05,0a198.44,198.44,0,0,1,7,33.67l0,0C487.64,206.68,507.46,178.53,499.73,159.54Z" transform="translate(0 -61)"/></svg>